<svg xmlns="http://www.w3.org/2000/svg" width="63" height="63" fill="none" viewBox="0 0 63 63">
  <g filter="url(#filter0_i)">
    <path fill="#9897E0" d="M.375 10.75A10.375 10.375 0 0110.75.375h31.125A10.375 10.375 0 0152.25 10.75v31.125A10.375 10.375 0 0141.875 52.25H10.75A10.375 10.375 0 01.375 41.875V10.75zm23.344 12.969H13.344a2.594 2.594 0 100 5.187h10.375v10.375a2.594 2.594 0 105.187 0V28.906h10.375a2.594 2.594 0 100-5.187H28.906V13.344a2.594 2.594 0 10-5.187 0v10.375zm20.75 33.718A12.968 12.968 0 0057.437 44.47V6.953a10.375 10.375 0 015.188 8.985v28.53a18.157 18.157 0 01-18.156 18.157H15.937a10.376 10.376 0 01-8.984-5.188h37.516z"/>
  </g>
  <defs>
    <filter id="filter0_i" width="62.25" height="66.25" x=".375" y=".375" color-interpolation-filters="sRGB" filterUnits="userSpaceOnUse">
      <feFlood flood-opacity="0" result="BackgroundImageFix"/>
      <feBlend in="SourceGraphic" in2="BackgroundImageFix" result="shape"/>
      <feColorMatrix in="SourceAlpha" result="hardAlpha" values="0 0 0 0 0 0 0 0 0 0 0 0 0 0 0 0 0 0 127 0"/>
      <feOffset dy="4"/>
      <feGaussianBlur stdDeviation="2"/>
      <feComposite in2="hardAlpha" k2="-1" k3="1" operator="arithmetic"/>
      <feColorMatrix values="0 0 0 0 0 0 0 0 0 0 0 0 0 0 0 0 0 0 0.25 0"/>
      <feBlend in2="shape" result="effect1_innerShadow"/>
    </filter>
  </defs>
</svg>
