<svg xmlns="http://www.w3.org/2000/svg" width="65" height="77" fill="none" viewBox="0 0 65 77">
  <g filter="url(#filter0_i)">
    <path fill="#9897E0" d="M32.5.357v25.429a6.357 6.357 0 006.357 6.357h25.425l.004.248v36.623a7.628 7.628 0 01-7.629 7.629H8.343a7.629 7.629 0 01-7.629-7.629V7.986A7.629 7.629 0 018.343.357H32.5z"/>
    <path fill="#9897E0" d="M37.268 1.867v23.919a1.59 1.59 0 001.59 1.589h23.845a8.714 8.714 0 00-.976-1.163l-23.62-23.62a7.636 7.636 0 00-.84-.725z"/>
  </g>
  <defs>
    <filter id="filter0_i" width="63.571" height="80.286" x=".714" y=".357" color-interpolation-filters="sRGB" filterUnits="userSpaceOnUse">
      <feFlood flood-opacity="0" result="BackgroundImageFix"/>
      <feBlend in="SourceGraphic" in2="BackgroundImageFix" result="shape"/>
      <feColorMatrix in="SourceAlpha" result="hardAlpha" values="0 0 0 0 0 0 0 0 0 0 0 0 0 0 0 0 0 0 127 0"/>
      <feOffset dy="4"/>
      <feGaussianBlur stdDeviation="2"/>
      <feComposite in2="hardAlpha" k2="-1" k3="1" operator="arithmetic"/>
      <feColorMatrix values="0 0 0 0 0 0 0 0 0 0 0 0 0 0 0 0 0 0 0.25 0"/>
      <feBlend in2="shape" result="effect1_innerShadow"/>
    </filter>
  </defs>
</svg>
