<svg xmlns="http://www.w3.org/2000/svg" width="500" height="200" fill="none" viewBox="0 0 500 200">
  <path fill="url(#paint0_linear_101_338)" d="M65.045 171.83c-29.358 0-40.869-18.009-37.144-41.627 3.86-24.476 30.748-69.46 74.787-77.416 42.212-7.627 86.254 14.116 112.813 44.008 40.633 45.73 14.616 86.642-32.699 77.398-57.998-11.33-86.596-2.363-117.757-2.363z"/>
  <path fill="#fff" d="M208.782 132.525c.565 0 1.024-.423 1.024-.944 0-.521-.459-.944-1.024-.944-.566 0-1.024.423-1.024.944 0 .521.458.944 1.024.944zM208.782 137.351c.565 0 1.024-.422 1.024-.944 0-.521-.459-.944-1.024-.944-.566 0-1.025.423-1.025.944 0 .522.459.944 1.025.944zM208.782 142.177c.565 0 1.024-.423 1.024-.944 0-.521-.459-.944-1.024-.944-.566 0-1.024.423-1.024.944 0 .521.458.944 1.024.944zM208.782 147.004c.565 0 1.024-.423 1.024-.944 0-.522-.459-.944-1.024-.944-.566 0-1.024.422-1.024.944 0 .521.458.944 1.024.944zM208.782 151.83c.565 0 1.024-.423 1.024-.944 0-.521-.459-.944-1.024-.944-.566 0-1.024.423-1.024.944 0 .521.458.944 1.024.944zM208.782 156.656c.565 0 1.024-.423 1.024-.944 0-.521-.459-.944-1.024-.944-.566 0-1.024.423-1.024.944 0 .521.458.944 1.024.944zM208.782 161.482c.565 0 1.024-.423 1.024-.944 0-.521-.459-.944-1.024-.944-.566 0-1.024.423-1.024.944 0 .521.458.944 1.024.944zM208.782 166.308c.565 0 1.024-.422 1.024-.944 0-.521-.459-.943-1.024-.943-.566 0-1.024.422-1.024.943 0 .522.458.944 1.024.944zM208.782 171.135c.565 0 1.024-.423 1.024-.944 0-.521-.459-.944-1.024-.944-.566 0-1.024.423-1.024.944 0 .521.458.944 1.024.944zM214.525 132.525c.565 0 1.024-.423 1.024-.944 0-.521-.459-.944-1.024-.944-.566 0-1.024.423-1.024.944 0 .521.458.944 1.024.944zM214.525 137.351c.566 0 1.024-.422 1.024-.944 0-.521-.458-.944-1.024-.944-.566 0-1.024.423-1.024.944 0 .522.458.944 1.024.944zM214.525 142.177c.565 0 1.024-.423 1.024-.944 0-.521-.459-.944-1.024-.944-.566 0-1.024.423-1.024.944 0 .521.458.944 1.024.944zM214.525 147.004c.565 0 1.024-.423 1.024-.944 0-.522-.459-.944-1.024-.944-.566 0-1.024.422-1.024.944 0 .521.458.944 1.024.944zM214.525 151.83c.565 0 1.024-.423 1.024-.944 0-.521-.459-.944-1.024-.944-.566 0-1.024.423-1.024.944 0 .521.458.944 1.024.944zM214.525 156.656c.565 0 1.024-.423 1.024-.944 0-.521-.459-.944-1.024-.944-.566 0-1.024.423-1.024.944 0 .521.458.944 1.024.944zM214.525 161.482c.565 0 1.024-.423 1.024-.944 0-.521-.459-.944-1.024-.944-.566 0-1.024.423-1.024.944 0 .521.458.944 1.024.944zM214.525 166.308c.565 0 1.024-.422 1.024-.944 0-.521-.459-.943-1.024-.943-.566 0-1.024.422-1.024.943 0 .522.458.944 1.024.944zM214.525 171.135c.565 0 1.024-.423 1.024-.944 0-.521-.459-.944-1.024-.944-.566 0-1.024.423-1.024.944 0 .521.458.944 1.024.944zM220.266 132.525c.565 0 1.024-.423 1.024-.944 0-.521-.459-.944-1.024-.944-.566 0-1.024.423-1.024.944 0 .521.458.944 1.024.944zM220.266 137.351c.566 0 1.024-.422 1.024-.944 0-.521-.458-.944-1.024-.944-.566 0-1.024.423-1.024.944 0 .522.458.944 1.024.944zM220.266 142.177c.565 0 1.024-.423 1.024-.944 0-.521-.459-.944-1.024-.944-.566 0-1.024.423-1.024.944 0 .521.458.944 1.024.944zM220.266 147.004c.565 0 1.024-.423 1.024-.944 0-.522-.459-.944-1.024-.944-.566 0-1.024.422-1.024.944 0 .521.458.944 1.024.944zM220.266 151.83c.565 0 1.024-.423 1.024-.944 0-.521-.459-.944-1.024-.944-.566 0-1.024.423-1.024.944 0 .521.458.944 1.024.944zM220.266 156.656c.565 0 1.024-.423 1.024-.944 0-.521-.459-.944-1.024-.944-.566 0-1.024.423-1.024.944 0 .521.458.944 1.024.944zM220.266 161.482c.565 0 1.024-.423 1.024-.944 0-.521-.459-.944-1.024-.944-.566 0-1.024.423-1.024.944 0 .521.458.944 1.024.944zM220.266 166.308c.565 0 1.024-.422 1.024-.944 0-.521-.459-.943-1.024-.943-.566 0-1.024.422-1.024.943 0 .522.458.944 1.024.944zM220.266 171.135c.565 0 1.024-.423 1.024-.944 0-.521-.459-.944-1.024-.944-.566 0-1.024.423-1.024.944 0 .521.458.944 1.024.944zM226.009 132.525c.565 0 1.024-.423 1.024-.944 0-.521-.459-.944-1.024-.944-.566 0-1.024.423-1.024.944 0 .521.458.944 1.024.944zM226.009 137.351c.566 0 1.024-.422 1.024-.944 0-.521-.458-.944-1.024-.944-.566 0-1.024.423-1.024.944 0 .522.458.944 1.024.944zM226.009 142.177c.565 0 1.024-.423 1.024-.944 0-.521-.459-.944-1.024-.944-.566 0-1.024.423-1.024.944 0 .521.458.944 1.024.944zM226.009 147.004c.566 0 1.024-.423 1.024-.944 0-.522-.458-.944-1.024-.944-.566 0-1.024.422-1.024.944 0 .521.458.944 1.024.944zM226.009 151.83c.565 0 1.024-.423 1.024-.944 0-.521-.459-.944-1.024-.944-.566 0-1.024.423-1.024.944 0 .521.458.944 1.024.944zM226.009 156.656c.565 0 1.024-.423 1.024-.944 0-.521-.459-.944-1.024-.944-.566 0-1.024.423-1.024.944 0 .521.458.944 1.024.944zM226.009 161.482c.565 0 1.024-.423 1.024-.944 0-.521-.459-.944-1.024-.944-.566 0-1.024.423-1.024.944 0 .521.458.944 1.024.944zM226.009 166.308c.565 0 1.024-.422 1.024-.944 0-.521-.459-.943-1.024-.943-.566 0-1.024.422-1.024.943 0 .522.458.944 1.024.944zM226.009 171.135c.565 0 1.024-.423 1.024-.944 0-.521-.459-.944-1.024-.944-.566 0-1.024.423-1.024.944 0 .521.458.944 1.024.944zM231.749 132.525c.566 0 1.024-.423 1.024-.944 0-.521-.458-.944-1.024-.944-.565 0-1.024.423-1.024.944 0 .521.459.944 1.024.944zM231.749 137.351c.566 0 1.024-.422 1.024-.944 0-.521-.458-.944-1.024-.944-.566 0-1.024.423-1.024.944 0 .522.458.944 1.024.944zM231.749 142.177c.566 0 1.024-.423 1.024-.944 0-.521-.458-.944-1.024-.944-.565 0-1.024.423-1.024.944 0 .521.459.944 1.024.944zM231.749 147.004c.566 0 1.024-.423 1.024-.944 0-.522-.458-.944-1.024-.944-.565 0-1.024.422-1.024.944 0 .521.459.944 1.024.944zM231.749 151.83c.566 0 1.024-.423 1.024-.944 0-.521-.458-.944-1.024-.944-.565 0-1.024.423-1.024.944 0 .521.459.944 1.024.944zM231.749 156.656c.566 0 1.024-.423 1.024-.944 0-.521-.458-.944-1.024-.944-.565 0-1.024.423-1.024.944 0 .521.459.944 1.024.944zM231.749 161.482c.566 0 1.024-.423 1.024-.944 0-.521-.458-.944-1.024-.944-.565 0-1.024.423-1.024.944 0 .521.459.944 1.024.944zM231.749 166.308c.566 0 1.024-.422 1.024-.944 0-.521-.458-.943-1.024-.943-.565 0-1.024.422-1.024.943 0 .522.459.944 1.024.944zM231.749 171.135c.566 0 1.024-.423 1.024-.944 0-.521-.458-.944-1.024-.944-.565 0-1.024.423-1.024.944 0 .521.459.944 1.024.944zM237.492 132.525c.566 0 1.024-.423 1.024-.944 0-.521-.458-.944-1.024-.944-.565 0-1.024.423-1.024.944 0 .521.459.944 1.024.944zM237.492 137.351c.566 0 1.024-.422 1.024-.944 0-.521-.458-.944-1.024-.944-.566 0-1.024.423-1.024.944 0 .522.458.944 1.024.944zM237.492 142.177c.566 0 1.024-.423 1.024-.944 0-.521-.458-.944-1.024-.944-.565 0-1.024.423-1.024.944 0 .521.459.944 1.024.944zM237.492 147.004c.566 0 1.024-.423 1.024-.944 0-.522-.458-.944-1.024-.944-.565 0-1.024.422-1.024.944 0 .521.459.944 1.024.944zM237.492 151.83c.566 0 1.024-.423 1.024-.944 0-.521-.458-.944-1.024-.944-.565 0-1.024.423-1.024.944 0 .521.459.944 1.024.944zM237.492 156.656c.566 0 1.024-.423 1.024-.944 0-.521-.458-.944-1.024-.944-.565 0-1.024.423-1.024.944 0 .521.459.944 1.024.944zM237.492 161.482c.566 0 1.024-.423 1.024-.944 0-.521-.458-.944-1.024-.944-.565 0-1.024.423-1.024.944 0 .521.459.944 1.024.944zM237.492 166.308c.566 0 1.024-.422 1.024-.944 0-.521-.458-.943-1.024-.943-.565 0-1.024.422-1.024.943 0 .522.459.944 1.024.944zM237.492 171.135c.566 0 1.024-.423 1.024-.944 0-.521-.458-.944-1.024-.944-.565 0-1.024.423-1.024.944 0 .521.459.944 1.024.944zM243.234 132.525c.566 0 1.024-.423 1.024-.944 0-.521-.458-.944-1.024-.944-.565 0-1.024.423-1.024.944 0 .521.459.944 1.024.944zM243.234 137.351c.566 0 1.024-.422 1.024-.944 0-.521-.458-.944-1.024-.944-.565 0-1.024.423-1.024.944 0 .522.459.944 1.024.944zM243.234 142.177c.566 0 1.024-.423 1.024-.944 0-.521-.458-.944-1.024-.944-.565 0-1.024.423-1.024.944 0 .521.459.944 1.024.944zM243.234 147.004c.566 0 1.024-.423 1.024-.944 0-.522-.458-.944-1.024-.944-.565 0-1.024.422-1.024.944 0 .521.459.944 1.024.944zM243.234 151.83c.566 0 1.024-.423 1.024-.944 0-.521-.458-.944-1.024-.944-.565 0-1.024.423-1.024.944 0 .521.459.944 1.024.944zM243.234 156.656c.566 0 1.024-.423 1.024-.944 0-.521-.458-.944-1.024-.944-.565 0-1.024.423-1.024.944 0 .521.459.944 1.024.944zM243.234 161.482c.566 0 1.024-.423 1.024-.944 0-.521-.458-.944-1.024-.944-.565 0-1.024.423-1.024.944 0 .521.459.944 1.024.944zM243.234 166.308c.566 0 1.024-.422 1.024-.944 0-.521-.458-.943-1.024-.943-.565 0-1.024.422-1.024.943 0 .522.459.944 1.024.944zM243.234 171.135c.566 0 1.024-.423 1.024-.944 0-.521-.458-.944-1.024-.944-.565 0-1.024.423-1.024.944 0 .521.459.944 1.024.944zM248.977 132.525c.566 0 1.024-.423 1.024-.944 0-.521-.458-.944-1.024-.944-.565 0-1.023.423-1.023.944 0 .521.458.944 1.023.944zM248.977 137.351c.566 0 1.025-.422 1.025-.944 0-.521-.459-.944-1.025-.944-.565 0-1.024.423-1.024.944 0 .522.459.944 1.024.944zM248.977 142.177c.566 0 1.024-.423 1.024-.944 0-.521-.458-.944-1.024-.944-.565 0-1.023.423-1.023.944 0 .521.458.944 1.023.944zM248.977 147.004c.566 0 1.024-.423 1.024-.944 0-.522-.458-.944-1.024-.944-.565 0-1.024.422-1.024.944 0 .521.459.944 1.024.944zM248.977 151.83c.566 0 1.024-.423 1.024-.944 0-.521-.458-.944-1.024-.944-.565 0-1.024.423-1.024.944 0 .521.459.944 1.024.944zM248.977 156.656c.566 0 1.024-.423 1.024-.944 0-.521-.458-.944-1.024-.944-.565 0-1.024.423-1.024.944 0 .521.459.944 1.024.944zM248.977 161.482c.566 0 1.024-.423 1.024-.944 0-.521-.458-.944-1.024-.944-.565 0-1.023.423-1.023.944 0 .521.458.944 1.023.944zM248.977 166.308c.566 0 1.024-.422 1.024-.944 0-.521-.458-.943-1.024-.943-.565 0-1.023.422-1.023.943 0 .522.458.944 1.023.944zM248.977 171.135c.566 0 1.024-.423 1.024-.944 0-.521-.458-.944-1.024-.944-.565 0-1.024.423-1.024.944 0 .521.459.944 1.024.944z"/>
  <g>
    <path fill="#fff" d="M77.65 51.616a5.116 5.116 0 01-2.781-.831l-2.29-1.479a4.211 4.211 0 00-4.62 0l-2.29 1.479a5.073 5.073 0 01-5.564 0l-2.29-1.479a4.211 4.211 0 00-4.619 0 .439.439 0 01-.618-.15.479.479 0 01.145-.644 5.074 5.074 0 015.565 0l2.29 1.478a4.21 4.21 0 004.618 0l2.29-1.478a5.073 5.073 0 015.565 0l2.29 1.478a4.21 4.21 0 004.619 0l2.29-1.478a5.073 5.073 0 015.565 0l2.29 1.478a4.21 4.21 0 004.619 0l2.29-1.478a5.074 5.074 0 015.565 0 .48.48 0 01.145.643.439.439 0 01-.618.151 4.212 4.212 0 00-4.619 0l-2.29 1.479a5.073 5.073 0 01-5.565 0l-2.29-1.479a4.21 4.21 0 00-4.618 0l-2.29 1.479a5.118 5.118 0 01-2.783.831z"/>
    <path fill="#fff" d="M77.65 55.482a5.115 5.115 0 01-2.781-.831l-2.29-1.48a4.21 4.21 0 00-4.62 0l-2.29 1.48a5.073 5.073 0 01-5.564 0l-2.29-1.48a4.21 4.21 0 00-4.619 0 .439.439 0 01-.618-.15.479.479 0 01.145-.644 5.073 5.073 0 015.565 0l2.29 1.479a4.21 4.21 0 004.618 0l2.29-1.479a5.073 5.073 0 015.565 0l2.29 1.479a4.21 4.21 0 004.619 0l2.29-1.479a5.073 5.073 0 015.565 0l2.29 1.479c1.425.92 3.195.92 4.619 0l2.29-1.479a5.074 5.074 0 015.565 0 .48.48 0 01.145.644.439.439 0 01-.618.15 4.211 4.211 0 00-4.619 0l-2.29 1.48a5.073 5.073 0 01-5.565 0l-2.29-1.48a4.21 4.21 0 00-4.618 0l-2.29 1.48a5.117 5.117 0 01-2.783.83z"/>
    <path fill="#fff" d="M77.65 59.347a5.118 5.118 0 01-2.781-.83l-2.29-1.48a4.21 4.21 0 00-4.62 0l-2.29 1.48a5.073 5.073 0 01-5.564 0l-2.29-1.48a4.21 4.21 0 00-4.619 0 .439.439 0 01-.618-.15.479.479 0 01.145-.644 5.073 5.073 0 015.565 0l2.29 1.478a4.21 4.21 0 004.618 0l2.29-1.478a5.073 5.073 0 015.565 0l2.29 1.478a4.21 4.21 0 004.619 0l2.29-1.478a5.073 5.073 0 015.565 0l2.29 1.478c1.425.92 3.195.92 4.619 0l2.29-1.478a5.074 5.074 0 015.565 0 .48.48 0 01.145.643.439.439 0 01-.618.151 4.211 4.211 0 00-4.619 0l-2.29 1.48a5.073 5.073 0 01-5.565 0l-2.29-1.48a4.21 4.21 0 00-4.618 0l-2.29 1.48a5.118 5.118 0 01-2.783.83z"/>
    <path fill="#fff" d="M77.651 63.213a5.116 5.116 0 01-2.782-.831l-2.29-1.479a4.21 4.21 0 00-4.62 0l-2.29 1.479a5.073 5.073 0 01-5.564 0l-2.29-1.479a4.21 4.21 0 00-4.619 0 .439.439 0 01-.618-.151.48.48 0 01.145-.644 5.074 5.074 0 015.565 0l2.29 1.479a4.21 4.21 0 004.618 0l2.29-1.479a5.074 5.074 0 015.565 0l2.29 1.479a4.21 4.21 0 004.619 0l2.29-1.479a5.073 5.073 0 015.565 0l2.29 1.479c1.425.92 3.195.92 4.619 0l2.29-1.479a5.074 5.074 0 015.565 0 .48.48 0 01.145.644.439.439 0 01-.618.151 4.211 4.211 0 00-4.619 0l-2.29 1.479a5.073 5.073 0 01-5.565 0l-2.29-1.479a4.21 4.21 0 00-4.618 0l-2.29 1.479a5.118 5.118 0 01-2.783.83z"/>
    <path fill="#fff" d="M77.65 67.078a5.116 5.116 0 01-2.781-.83l-2.29-1.48a4.21 4.21 0 00-4.62 0l-2.29 1.48a5.073 5.073 0 01-5.564 0l-2.29-1.48a4.211 4.211 0 00-4.619 0 .439.439 0 01-.618-.15.479.479 0 01.145-.644 5.074 5.074 0 015.565 0l2.29 1.479a4.21 4.21 0 004.618 0l2.29-1.48a5.073 5.073 0 015.565 0l2.29 1.48a4.21 4.21 0 004.619 0l2.29-1.48a5.073 5.073 0 015.565 0l2.29 1.48a4.21 4.21 0 004.619 0l2.29-1.48a5.074 5.074 0 015.565 0 .48.48 0 01.145.645.439.439 0 01-.618.15 4.212 4.212 0 00-4.619 0l-2.29 1.48a5.073 5.073 0 01-5.565 0l-2.29-1.48a4.21 4.21 0 00-4.618 0l-2.29 1.48a5.118 5.118 0 01-2.783.83z"/>
    <path fill="#fff" d="M77.65 70.944a5.117 5.117 0 01-2.781-.831l-2.29-1.479a4.21 4.21 0 00-4.62 0l-2.29 1.479a5.073 5.073 0 01-5.564 0l-2.29-1.479a4.21 4.21 0 00-4.619 0 .439.439 0 01-.618-.15.479.479 0 01.145-.645 5.073 5.073 0 015.565 0l2.29 1.48a4.21 4.21 0 004.618 0l2.29-1.48a5.073 5.073 0 015.565 0l2.29 1.48a4.21 4.21 0 004.619 0l2.29-1.48a5.073 5.073 0 015.565 0l2.29 1.48a4.21 4.21 0 004.619 0l2.29-1.48a5.074 5.074 0 015.565 0 .48.48 0 01.145.644.439.439 0 01-.618.151 4.211 4.211 0 00-4.619 0l-2.29 1.479a5.073 5.073 0 01-5.565 0l-2.29-1.479a4.21 4.21 0 00-4.618 0l-2.29 1.479a5.117 5.117 0 01-2.783.83z"/>
    <path fill="#fff" d="M77.651 74.81a5.116 5.116 0 01-2.782-.832l-2.29-1.478a4.21 4.21 0 00-4.62 0l-2.29 1.478a5.073 5.073 0 01-5.564 0l-2.29-1.478a4.21 4.21 0 00-4.619 0 .439.439 0 01-.618-.151.48.48 0 01.145-.644 5.073 5.073 0 015.565 0l2.29 1.479a4.21 4.21 0 004.618 0l2.29-1.48a5.073 5.073 0 015.565 0l2.29 1.48a4.21 4.21 0 004.619 0l2.29-1.48a5.073 5.073 0 015.565 0l2.29 1.48c1.425.92 3.195.92 4.619 0l2.29-1.48a5.074 5.074 0 015.565 0 .48.48 0 01.145.645.439.439 0 01-.618.15 4.211 4.211 0 00-4.619 0l-2.29 1.48a5.073 5.073 0 01-5.565 0l-2.29-1.48a4.211 4.211 0 00-4.618 0l-2.29 1.48a5.119 5.119 0 01-2.783.83z"/>
  </g>
  <path fill="#6B49ED" d="M108.54 41.163a14.444 14.444 0 00-2.41-3.253l2.992-2.138c-2.313-2.43-5.252-4.212-8.59-5.203l-.991 3.358a16.742 16.742 0 00-3.424-.687c-.278-.025-.551-.025-.827-.037l.364-3.473a20.599 20.599 0 00-9.808 1.89l1.862 3.035a15.784 15.784 0 00-3.554 2.218l-2.406-2.691c-2.574 2.095-4.475 4.75-5.549 7.746l3.645.933a13.42 13.42 0 00-.79 3.27c-.023.212-.021.42-.034.63l-3.77-.335c-.219 3.18.48 6.32 2.038 9.158l3.293-1.717a14.421 14.421 0 002.428 3.306l-2.92 2.218c2.305 2.399 5.228 4.16 8.53 5.138l1.009-3.352c1.086.335 2.223.574 3.41.683.27.024.534.023.8.035l-.373 3.473a20.604 20.604 0 009.889-1.913l-1.851-3.035a15.769 15.769 0 003.559-2.244l2.397 2.696c2.574-2.11 4.467-4.782 5.526-7.797l-3.632-.939c.367-1.008.631-2.064.749-3.167.027-.244.026-.483.039-.725l3.762.385c.212-3.187-.498-6.33-2.072-9.171l-3.291 1.706zm-15.072 16.7c-6.18-.564-10.692-5.64-10.08-11.336.613-5.696 6.12-9.856 12.3-9.29 6.179.564 10.692 5.64 10.079 11.335-.612 5.697-6.119 9.857-12.298 9.292z"/>
  <path fill="#9CA6FF" d="M128.681 31.508l-2.791.23a7.436 7.436 0 00-.909-2.951l2.538-1.067a10.616 10.616 0 00-2.767-3.275l-1.777 1.981a8.299 8.299 0 00-1.517-.967 8.632 8.632 0 00-1.425-.532l.925-2.436a12.23 12.23 0 00-4.326-.46l.275 2.572a9.075 9.075 0 00-3.247.83l-1.214-2.34c-.883.404-1.717.91-2.467 1.532-.362.298-.691.62-1.002.956l2.161 1.67a7.59 7.59 0 00-1.617 2.699l-2.675-.874a9.781 9.781 0 00-.553 4.056l2.825-.232c.062.81.258 1.617.604 2.388.091.203.213.388.322.581l-2.591 1.142a10.514 10.514 0 002.782 3.223l1.823-2.018a8.827 8.827 0 002.908 1.473l-.956 2.493c1.309.4 2.703.587 4.118.512.09-.005.179-.018.268-.025l-.253-2.621a8.87 8.87 0 003.196-.853l1.238 2.369a11.383 11.383 0 003.458-2.515l-2.201-1.65a7.56 7.56 0 001.675-2.706l2.66.888c.038-.107.082-.21.116-.317a9.368 9.368 0 00.396-3.756zm-17.191.027c.356-2.33 2.325-4.248 4.827-4.709 2.473-.455 5.058.592 6.371 2.575 1.325 2.002 1.133 4.625-.473 6.445-1.809 2.05-5.029 2.652-7.561 1.411-2.229-1.092-3.516-3.416-3.164-5.722z"/>
  <g>
    <path fill="url(#paint1_linear_101_338)" d="M150.365 32.012V48.65h40.216V32.012l-20.108 13.015-20.108-13.015z"/>
    <path fill="url(#paint2_linear_101_338)" d="M150.365 32.012h40.216l-20.108 13.015-20.108-13.015z"/>
  </g>
  <path fill="#C9CDFF" d="M151.73 58.138l-2.635-.942c.418-.97.623-2.007.609-3.044l2.813.081a9.827 9.827 0 00-.914-4.1l-2.568 1.058a7.457 7.457 0 00-.902-1.5 7.81 7.81 0 00-1.03-1.069l2.018-1.82a11.565 11.565 0 00-3.689-2.199l-.998 2.439a9.227 9.227 0 00-3.339-.588l.038-2.617a12 12 0 00-2.974.368c-.472.122-.926.277-1.37.452l1.144 2.401a8.538 8.538 0 00-2.772 1.773l-1.994-1.892a10.619 10.619 0 00-2.467 3.44l2.666.954a7.214 7.214 0 00-.612 2.408c-.016.221.004.439.009.658l-2.896-.035a9.726 9.726 0 00.952 4.06l2.627-1.073a8.003 8.003 0 001.915 2.53l-2.074 1.86c.99.902 2.159 1.645 3.474 2.16.085.033.171.058.255.09l1.043-2.476a9.043 9.043 0 003.303.547l-.03 2.652c1.494-.021 2.973-.31 4.347-.849l-1.189-2.4a8.506 8.506 0 002.827-1.755l1.974 1.899c.086-.08.176-.156.259-.239.96-.957 1.683-2.06 2.18-3.232zm-15.557-7.061c1.452-1.962 4.163-2.883 6.649-2.268 2.456.607 4.286 2.62 4.511 4.953.227 2.356-1.219 4.65-3.554 5.633-2.63 1.108-5.833.324-7.52-1.84a5.335 5.335 0 01-.086-6.478z"/>
  <g>
    <path fill="url(#paint3_linear_101_338)" d="M230.784 79.973a.408.408 0 00-.527-.155 147.408 147.408 0 00-22.568 13.259 145.827 145.827 0 00-19.593 16.794c-5.975 6.125-11.367 12.761-16.028 19.724a131.708 131.708 0 00-4.108 6.544h.018c.271.008.547.04.823.09 13.985-23.63 35.8-43.465 61.812-55.772.193-.091.269-.308.171-.484z"/>
    <path fill="url(#paint4_linear_101_338)" d="M237.717 80.116c1.158-1.217 1.561-3.187.446-4.428-.789-.88-2.148-1.19-3.381-1.043-6.32.755-13.969 10.493-13.961 10.486 6.829-1.648 14.119-2.096 16.896-5.015z"/>
    <path fill="url(#paint5_linear_101_338)" d="M219.468 82.194c.291-1.342-.321-2.942-1.714-3.418-.986-.336-2.13-.036-2.97.552-4.304 3.011-5.442 13.11-5.442 13.11 4.268-3.862 9.427-7.026 10.126-10.244z"/>
    <path fill="url(#paint6_linear_101_338)" d="M211.912 100.463c1.175-.48 2.102-1.675 1.782-2.815-.227-.807-1.022-1.398-1.887-1.65-4.434-1.286-12.339 3.742-12.339 3.742 5.07.838 9.627 1.876 12.444.723z"/>
    <path fill="url(#paint7_linear_101_338)" d="M198.128 94.697c-.123-1.376-1.203-2.772-2.702-2.878-1.061-.075-2.084.509-2.723 1.294-3.274 4.02-.851 13.739-.851 13.739 3.567-4.646 6.572-8.853 6.276-12.155z"/>
    <path fill="url(#paint8_linear_101_338)" d="M188.78 104.222c-.126-1.405-1.229-2.831-2.761-2.939-1.083-.077-2.128.519-2.78 1.321-3.345 4.107.098 13.089.098 13.089s5.744-8.099 5.443-11.471z"/>
    <path fill="url(#paint9_linear_101_338)" d="M179.885 111.747c-.369-1.671-1.916-3.24-3.774-3.169-1.314.049-2.477.902-3.138 1.949-3.384 5.37 2.146 15.707 2.146 15.707s5.651-10.476 4.766-14.487z"/>
    <path fill="url(#paint10_linear_101_338)" d="M221.48 93.392c1.152-.63 1.952-1.97 1.466-3.112-.343-.81-1.245-1.331-2.174-1.493-4.764-.828-12.8 4.562-12.8 4.562 5.362.292 10.747 1.554 13.508.043z"/>
    <path fill="url(#paint11_linear_101_338)" d="M207.432 90.737c1.707-3.803-.061-5.772-1.792-5.979-1.025-.123-4.578.29-4.55 5.002.04 6.757.729 8.295.727 8.278.155-.154 3.597-2.805 5.615-7.3z"/>
    <path fill="url(#paint12_linear_101_338)" d="M200.761 108.066c4.379-.431 5.417-2.764 4.812-4.238-.359-.874-2.392-3.503-6.825-1.268-3.497 1.763-7.49 4.482-7.475 4.473.218.05 4.312 1.542 9.488 1.033z"/>
    <path fill="url(#paint13_linear_101_338)" d="M192.52 116.842c4.506-.443 5.574-2.844 4.952-4.36-.37-.9-2.461-3.605-7.023-1.305-3.598 1.815-7.705 4.612-7.69 4.602.224.052 4.436 1.587 9.761 1.063z"/>
    <path fill="url(#paint14_linear_101_338)" d="M185.237 125.752c4.718-1.132 5.438-3.841 4.512-5.361-.55-.902-3.247-3.471-7.702-.357-3.514 2.456-7.399 6.032-7.384 6.019.247.023 4.997 1.037 10.574-.301z"/>
  </g>
  <g>
    <path fill="url(#paint15_linear_101_338)" d="M21.596 129.631c-.04-.207.11-.405.335-.443a166.577 166.577 0 0128.252-2.266c9.42.043 18.916.876 28.224 2.475a168.987 168.987 0 0127.276 7.058 161.05 161.05 0 018.032 3.061l-.014.011a5.145 5.145 0 00-.63.565c-28.29-11.557-60.51-15.268-90.992-10.155-.226.038-.442-.099-.483-.306z"/>
    <path fill="url(#paint16_linear_101_338)" d="M15.867 133.873c-1.825-.335-3.542-1.752-3.473-3.459.048-1.208.973-2.278 2.113-2.887 5.843-3.121 19.087.521 19.076.52-6.895 2.673-13.339 6.629-17.716 5.826z"/>
    <path fill="url(#paint17_linear_101_338)" d="M32.665 124.773c-1.183-.955-1.788-2.664-.95-3.892.594-.87 1.766-1.297 2.884-1.303 5.725-.026 13.748 7.79 13.748 7.79-6.29-.711-12.843-.304-15.682-2.595z"/>
    <path fill="url(#paint18_linear_101_338)" d="M51.8 135.643c-1.324.294-2.94-.159-3.468-1.308-.373-.813-.12-1.783.433-2.508 2.828-3.718 12.993-4.189 12.993-4.189-3.677 3.718-6.784 7.3-9.959 8.005z"/>
    <path fill="url(#paint19_linear_101_338)" d="M59.356 122.602c-.86-1.231-.928-3.046.259-4.027.84-.693 2.107-.81 3.194-.53 5.566 1.435 10.328 11.047 10.328 11.047-6.25-1.787-11.72-3.539-13.781-6.49z"/>
    <path fill="url(#paint20_linear_101_338)" d="M73.88 125.054c-.877-1.257-.947-3.111.265-4.112.858-.709 2.153-.828 3.262-.542 5.686 1.466 9.075 11.064 9.075 11.064s-10.496-3.395-12.602-6.41z"/>
    <path fill="url(#paint21_linear_101_338)" d="M86.624 126.095c-.86-1.625-.656-3.863.955-4.909 1.14-.74 2.715-.714 4.003-.226 6.602 2.504 9.184 14.482 9.184 14.482s-12.08-5.45-14.142-9.347z"/>
    <path fill="url(#paint22_linear_101_338)" d="M38.808 135.385c-1.41.155-3.02-.497-3.41-1.746-.278-.884.115-1.859.784-2.548 3.426-3.527 13.953-3.771 13.953-3.771-4.303 3.432-7.948 7.694-11.327 8.065z"/>
    <path fill="url(#paint23_linear_101_338)" d="M48.763 124.802c-4.097-2.183-3.987-4.89-2.677-6.093.776-.713 4.053-2.476 7.325 1.501 4.694 5.706 5.191 7.409 5.181 7.394-.239-.038-4.987-.221-9.83-2.802z"/>
    <path fill="url(#paint24_linear_101_338)" d="M66.495 135.407c-3.984 2.241-6.49.896-7.011-.703-.31-.948-.44-4.367 4.852-5.123 4.174-.596 9.433-.682 9.414-.682-.148.173-2.546 3.86-7.255 6.508z"/>
    <path fill="url(#paint25_linear_101_338)" d="M79.564 137.889c-4.099 2.305-6.677.922-7.214-.724-.319-.975-.452-4.493 4.992-5.27 4.295-.614 9.706-.703 9.686-.702-.152.177-2.62 3.971-7.464 6.696z"/>
    <path fill="url(#paint26_linear_101_338)" d="M91.921 141.051c-4.76 1.853-7.26.003-7.544-1.826-.169-1.085.302-4.848 6.226-4.877 4.673-.024 10.442.673 10.421.671-.193.167-3.478 3.843-9.103 6.032z"/>
  </g>
  <g>
    <path fill="url(#paint27_linear_101_338)" d="M172.407 128.048c.525.655.641 1.769.391 2.719 3.311-3.859 8.898-9.969 13.181-10.744 4.136-.747 5.705 2.441 5.266 4.402 4.487-5.864 11.349-10.345 14.925-10.836 4.107-.563 6.167 2.707 4.643 4.581 9.721-8.081 20.031-11.169 22.934-8.261 3.804 3.81-6.325 14.157-18.494 15.53 3.572-.32 7.357 1.267 7.498 3.904.149 2.779-4.098 5.158-10.253 4.074 1.606 1.013 2.56 3.5.15 5.652-4.187 3.739-14.744 3.42-21.689 2.718 2.691.511 5.047 1.727 4.882 4.065-.376 5.337-13.045 4.376-21.354 3.092 1.429.552 2.582 1.525 2.453 3.281-.452 6.159-18.494 3.664-24.24 3.118.654-19.692 15.039-33.126 19.707-27.295z"/>
    <path fill="#fff" d="M156.132 151.184a.337.337 0 01-.24-.099.282.282 0 01.024-.42c12.776-10.602 23.692-14.789 36.331-19.637 10.321-3.958 22.018-8.445 36.452-17.369a.34.34 0 01.448.082c.1.136.06.321-.088.413-14.487 8.956-26.216 13.455-36.564 17.424-12.585 4.827-23.453 8.995-36.147 19.529a.34.34 0 01-.216.077zM197.949 125.097a.334.334 0 01-.227-.086.28.28 0 01-.003-.42l8.222-7.69a.344.344 0 01.457-.003.282.282 0 01.003.421l-8.222 7.689a.333.333 0 01-.23.089zM178.909 132.157c-.07 0-.14-.02-.199-.063a.282.282 0 01-.056-.417 70.26 70.26 0 017.601-7.689.343.343 0 01.457.013.282.282 0 01-.014.421 69.39 69.39 0 00-7.535 7.621.33.33 0 01-.254.114zM162.079 143.538a.304.304 0 01-.06-.005c-.175-.03-.291-.185-.258-.347.837-4.155 2.748-8.129 5.528-11.491a.343.343 0 01.453-.056c.142.1.169.286.061.417-2.719 3.288-4.589 7.174-5.407 11.239a.318.318 0 01-.317.243zM217.147 129.779l-11.217-.595c-.178-.01-.314-.15-.304-.314.01-.165.161-.29.341-.28l11.198.594c.178.009.314.15.304.314-.01.158-.153.281-.322.281zM207.615 136.544l-15.124-.538c-.178-.007-.317-.145-.31-.309.007-.164.157-.288.335-.286l15.112.538c.178.006.317.144.31.309-.007.16-.15.286-.323.286zM189.696 145.799a.351.351 0 01-.072-.007 163.598 163.598 0 01-11.316-2.799c-.17-.049-.265-.216-.213-.373.053-.157.234-.245.405-.196a162.186 162.186 0 0011.267 2.787c.174.037.283.196.243.357a.318.318 0 01-.314.231zM171.016 152.541a.344.344 0 01-.121-.022 48.344 48.344 0 00-8.433-2.297c-.175-.031-.29-.187-.256-.348.033-.162.202-.267.378-.237a49.142 49.142 0 018.553 2.33c.165.062.245.235.178.388a.324.324 0 01-.299.186z"/>
  </g>
  <g>
    <path fill="url(#paint28_linear_101_338)" d="M.032 86.76c-.299-1.87 1.542-3.516 3.492-4.104 3.475-1.05 7.43.165 10.694 1.712-.447-.514-.681-1.212-.574-1.87 1.008-6.139 17.197-1.627 22.733 2.44-1.058-2.048 1.13-3.866 3.7-3.61 4.611.46 11.948 7.613 14.865 11.216-.258-.917-.222-1.9.277-2.716 2.488-4.066 20.79-2.975 32.422 23.812-.385-1.083.378-2.388 1.54-2.847 8.125-3.212 12.644 19.665 13.769 31.637-7.628-1.917-38.159-11.859-38.73-19.104-.122-1.533.657-3.165 2.488-4.175-8.217.321-19.006-2.647-20.3-5.999-.57-1.475.138-3.496 2.6-4.745-5.658.85-21.79 1.535-22.593-4.137-.203-1.435.742-3.235 3.227-4.229-4.048.489-11.5.622-14.549-1.89-2.902-2.393-1.972-6.464 2.41-7.187C7.222 92.517.623 90.463.033 86.76z"/>
    <path fill="#fff" d="M98.451 138.438a.331.331 0 01-.265-.127c-18.71-24.74-50.613-43.999-83.261-50.26-.175-.034-.287-.192-.25-.353.036-.16.207-.264.382-.23 15.975 3.063 32.143 9.315 46.756 18.079 14.823 8.889 27.584 20.101 36.903 32.424a.283.283 0 01-.08.414.341.341 0 01-.185.053zM33.54 89.649a.338.338 0 01-.21-.072 33.028 33.028 0 00-8.803-4.959c-.166-.062-.244-.236-.177-.388.068-.152.257-.225.422-.162a33.679 33.679 0 018.978 5.057.282.282 0 01.035.42.334.334 0 01-.245.104zM49.722 96.124a.33.33 0 01-.28-.147c-1.73-2.722-4.08-5.175-6.799-7.092a.282.282 0 01-.06-.417.341.341 0 01.453-.056c2.784 1.964 5.192 4.476 6.964 7.264.09.142.038.324-.115.407a.342.342 0 01-.163.041zM73.051 107.34a.325.325 0 01-.296-.179c-2.158-4.581-5.642-8.52-10.075-11.39a.283.283 0 01-.078-.415.341.341 0 01.45-.073c4.53 2.934 8.09 6.96 10.295 11.641.072.151-.004.326-.167.392a.36.36 0 01-.129.024z"/>
    <path fill="#fff" d="M38.437 103.851c-1.262 0-2.522-.073-3.77-.221-.176-.021-.3-.17-.278-.333.023-.163.185-.278.361-.257 4.131.49 8.416.145 12.392-.999.17-.049.351.039.404.196.053.157-.042.324-.212.373a32.35 32.35 0 01-8.897 1.241zM23.485 96.545c-2.034 0-4.067-.2-6.045-.6-.175-.035-.285-.193-.247-.354.039-.16.21-.262.385-.227a30.07 30.07 0 0011.915-.02c.174-.036.347.065.385.225.04.16-.07.32-.244.356-2.011.413-4.08.62-6.15.62zM61.117 114.032a23.15 23.15 0 01-5.354-.624c-.173-.041-.277-.203-.232-.362.044-.159.22-.255.393-.214a22.58 22.58 0 009.736.143c.174-.036.347.065.386.225.038.161-.07.32-.245.356-1.536.318-3.11.476-4.684.476zM93.22 126.028c-.16 0-.3-.11-.32-.26a34.421 34.421 0 00-2.448-8.875c-.066-.153.016-.326.182-.386.167-.06.353.016.419.169a34.97 34.97 0 012.488 9.018c.022.163-.103.312-.28.332-.014.002-.027.002-.04.002zM80.393 126.956c-3.33 0-6.65-.631-9.71-1.857-.164-.065-.239-.241-.168-.391.072-.151.261-.22.425-.155a25.576 25.576 0 0011.484 1.727c.177-.014.334.107.35.271.015.163-.117.308-.295.322-.694.055-1.39.083-2.086.083z"/>
  </g>
  <g>
    <path fill="url(#paint29_linear_101_338)" d="M83.508 95.906H37.89c-.481 0-.917-.18-1.232-.47a1.541 1.541 0 01-.51-1.136V50.219c0-.444.195-.845.51-1.136.315-.29.75-.47 1.232-.47h45.618c.482 0 .917.18 1.232.47.316.29.51.692.51 1.136V94.3c0 .444-.194.845-.51 1.136-.315.29-.75.47-1.232.47z" opacity=".8"/>
    <path fill="#FC6" d="M79.544 74.24H42.25v.79h37.294v-.79zM79.544 76.049H42.25v.79h37.294v-.79zM79.544 77.857H42.25v.79h37.294v-.79zM68.368 87.744H42.25v.79h26.118v-.79zM79.544 89.553H42.25v.79h37.294v-.79zM79.544 91.361H42.25v.79h37.294v-.79zM64.232 80.992H42.25v.79h21.982v-.79zM79.544 82.8H42.25v.79h37.294v-.79zM79.544 84.61H42.25v.79h37.294v-.79z"/>
    <g>
      <path fill="url(#paint30_linear_101_338)" d="M42.947 71.945h35.504c.302 0 .575-.113.773-.295a.966.966 0 00.32-.712V53.374a.966.966 0 00-.32-.712 1.137 1.137 0 00-.773-.295H42.947c-.302 0-.575.113-.772.295a.966.966 0 00-.32.712v17.564c0 .278.122.53.32.712.197.182.47.295.772.295z"/>
      <path fill="#fff" d="M44.941 69.843H57.94a.65.65 0 00.441-.168.552.552 0 00.183-.407V55.044a.552.552 0 00-.183-.407.65.65 0 00-.441-.168H44.941a.65.65 0 00-.441.168.552.552 0 00-.183.407v14.224c0 .159.07.303.183.407a.65.65 0 00.441.168z"/>
      <path fill="#FF5E00" d="M51.255 62.952h-.028c-.923 0-2.394-1.387-2.394-2.869 0-1.481 1.072-2.497 2.45-2.497 1.322 0 2.394 1.016 2.394 2.497 0 1.482-1.472 2.87-2.422 2.869zM46.333 66.094c.096-.425.242-.753.454-1.014.212-.261.491-.456.853-.616a10.212 10.212 0 011.653-.57 8.165 8.165 0 011.962-.246 8.16 8.16 0 011.961.246c.61.152 1.17.357 1.654.57.361.16.64.355.852.616.213.261.358.589.454 1.014.024.105.079.61.157 1.413H46.176c.078-.803.134-1.308.157-1.413z"/>
      <g>
        <path fill="#fff" d="M71.837 59.118h-6.642c-.106 0-.191-.078-.191-.176 0-.097.085-.175.19-.175h6.643c.106 0 .191.078.191.175 0 .098-.085.176-.19.176zM73.618 57.93h-8.423c-.106 0-.191-.08-.191-.177 0-.097.085-.175.19-.175h8.424c.105 0 .19.078.19.175 0 .097-.085.176-.19.176zM75.399 56.74H65.195c-.106 0-.191-.079-.191-.176 0-.097.085-.176.19-.176H75.4c.105 0 .19.08.19.176 0 .097-.085.176-.19.176z"/>
        <g>
          <path fill="#fff" d="M63.783 59.518H60.39c-.12 0-.218-.09-.218-.2V56.19c0-.111.098-.201.218-.201h3.393c.12 0 .218.09.218.2v3.128c0 .111-.097.201-.218.201z"/>
          <path fill="#FC6" d="M61.854 58.695a.228.228 0 01-.154-.058l-.837-.772a.19.19 0 010-.284.231.231 0 01.309 0l.665.613 1.15-1.308a.23.23 0 01.306-.03.19.19 0 01.032.283l-1.301 1.482a.225.225 0 01-.158.074h-.012z"/>
        </g>
        <g>
          <path fill="#fff" d="M71.837 63.341h-6.642c-.106 0-.191-.078-.191-.176 0-.097.085-.175.19-.175h6.643c.106 0 .191.078.191.175 0 .098-.085.176-.19.176zM75.399 62.152H65.195c-.106 0-.191-.079-.191-.176 0-.097.085-.175.19-.175H75.4c.105 0 .19.078.19.175 0 .097-.085.176-.19.176zM75.399 60.963H65.195c-.106 0-.191-.079-.191-.176 0-.097.085-.176.19-.176H75.4c.105 0 .19.08.19.176 0 .097-.085.176-.19.176zM63.783 63.741H60.39c-.12 0-.218-.09-.218-.201v-3.127c0-.111.098-.201.218-.201h3.393c.12 0 .218.09.218.2v3.128c0 .111-.097.201-.218.201z"/>
          <path fill="#FC6" d="M61.854 62.918a.228.228 0 01-.154-.059l-.837-.77a.19.19 0 010-.285.231.231 0 01.309 0l.665.613 1.15-1.308a.23.23 0 01.306-.03.19.19 0 01.032.283l-1.301 1.482a.224.224 0 01-.158.074h-.012z"/>
        </g>
        <g>
          <path fill="#fff" d="M71.837 67.564h-6.642c-.106 0-.191-.078-.191-.176 0-.097.085-.175.19-.175h6.643c.106 0 .191.078.191.175 0 .097-.085.176-.19.176zM73.618 66.375h-8.423c-.106 0-.191-.079-.191-.176 0-.097.085-.176.19-.176h8.424c.105 0 .19.08.19.176 0 .097-.085.176-.19.176zM75.399 65.186H65.195c-.106 0-.191-.079-.191-.176 0-.097.085-.176.19-.176H75.4c.105 0 .19.08.19.176 0 .097-.085.176-.19.176z"/>
          <g>
            <path fill="#fff" d="M63.783 67.964H60.39c-.12 0-.218-.09-.218-.201v-3.127c0-.111.098-.201.218-.201h3.393c.12 0 .218.09.218.2v3.128c0 .111-.097.201-.218.201z"/>
            <path fill="#FC6" d="M61.854 67.141a.228.228 0 01-.154-.058l-.837-.772a.19.19 0 010-.284.231.231 0 01.309 0l.665.613 1.15-1.308a.231.231 0 01.306-.03.19.19 0 01.032.283l-1.301 1.482a.225.225 0 01-.158.074h-.012z"/>
          </g>
        </g>
      </g>
    </g>
  </g>
  <g>
    <path fill="#FF8C01" d="M197.123 40.331l-22.722 14.707v18.8h45.443v-18.8l-22.721-14.707z"/>
    <path fill="#DCDCFF" d="M214.525 41.914h-36.758v30.342h36.758V41.914z"/>
    <path fill="#fff" d="M213.927 42.465h-35.562v29.24h35.562v-29.24z"/>
    <g>
      <path fill="#DCDCFF" d="M209.272 44.913h-8.211v8.984h8.211v-8.984z"/>
      <path fill="#fff" d="M207.673 47.164c.431 0 .781-.322.781-.72 0-.397-.35-.72-.781-.72-.431 0-.781.323-.781.72 0 .398.35.72.781.72z"/>
      <path fill="#DCDCFF" d="M201.061 51.714c.064-.088 2.484-3.64 2.484-3.64l2.373 2.912 1.258-.615 2.096 1.343v2.183h-8.211v-2.183z"/>
      <g>
        <path fill="#DCDCFF" d="M209.272 62.95H183.02v1.18h26.252v-1.18zM209.272 60.348H183.02v1.18h26.252v-1.18zM209.272 57.747H183.02v1.18h26.252v-1.18zM209.272 55.146H183.02v1.18h26.252v-1.18z"/>
      </g>
      <g>
        <path fill="#DCDCFF" d="M198.662 52.717H183.02v1.18h15.642v-1.18zM198.662 50.115H183.02v1.18h15.642v-1.18zM198.662 47.514H183.02v1.18h15.642v-1.18zM198.662 44.913H183.02v1.18h15.642v-1.18z"/>
      </g>
    </g>
    <path fill="url(#paint31_linear_101_338)" d="M174.401 55.038v18.8h45.443v-18.8l-22.721 14.707-22.722-14.707z"/>
  </g>
  <g>
    <path fill="url(#paint32_linear_101_338)" d="M134.8 169.718c-2.683 0-5.234-.785-7.379-2.269-16.322-11.292-28.887-25.151-37.346-41.19-8.45-16.024-12.678-33.995-12.567-53.413.02-3.404 1.675-6.587 4.54-8.733 2.187-1.636 4.937-2.538 7.745-2.538.84 0 1.741.142 3.236.378 2.638.415 6.625 1.042 11.528 1.042 8.795 0 16.74-2.076 23.614-6.171a13.054 13.054 0 016.627-1.818h.051a13 13 0 016.632 1.794c6.914 4.1 14.836 6.178 23.548 6.178 4.734 0 8.696-.604 11.318-1.003 1.573-.24 2.612-.398 3.531-.398 2.806 0 5.555.9 7.74 2.533 2.87 2.145 4.528 5.33 4.548 8.737.11 19.188-3.993 36.92-12.195 52.704-8.414 16.191-21.12 30.281-37.765 41.877-2.146 1.495-4.702 2.287-7.392 2.29h-.014z"/>
    <path fill="url(#paint33_linear_101_338)" d="M134.8 169.718c-2.683 0-5.234-.785-7.379-2.269-16.322-11.292-28.887-25.151-37.346-41.19-8.45-16.024-12.678-33.995-12.567-53.413.02-3.404 1.675-6.587 4.54-8.733 2.187-1.636 4.937-2.538 7.745-2.538.84 0 1.741.142 3.236.378 2.638.415 6.625 1.042 11.528 1.042 8.795 0 16.74-2.076 23.614-6.171a13.054 13.054 0 016.627-1.818h.051a13 13 0 016.632 1.794c6.914 4.1 14.836 6.178 23.548 6.178 4.734 0 8.696-.604 11.318-1.003 1.573-.24 2.612-.398 3.531-.398 2.806 0 5.555.9 7.74 2.533 2.87 2.145 4.528 5.33 4.548 8.737.11 19.188-3.993 36.92-12.195 52.704-8.414 16.191-21.12 30.281-37.765 41.877-2.146 1.495-4.702 2.287-7.392 2.29h-.014z"/>
    <path fill="#fff" d="M134.811 165.508c-2.051.001-4.014-.6-5.654-1.735-15.456-10.693-27.35-23.808-35.35-38.979-8-15.168-12.002-32.195-11.896-50.608.015-2.604 1.28-5.039 3.472-6.68 1.673-1.252 3.776-1.942 5.923-1.942.602 0 1.44.132 2.71.332 2.472.39 6.61 1.04 11.558 1.04 8.985 0 17.115-2.13 24.165-6.33a9.99 9.99 0 015.071-1.39h.035a9.94 9.94 0 015.073 1.37c7.087 4.203 15.195 6.334 24.097 6.334 4.778 0 8.728-.602 11.341-1 1.399-.213 2.324-.354 3.009-.354 2.146 0 4.248.688 5.92 1.938 2.195 1.64 3.463 4.077 3.478 6.683.105 18.195-3.779 34.995-11.542 49.935-7.959 15.315-19.989 28.65-35.756 39.635-1.641 1.144-3.596 1.75-5.654 1.751z"/>
    <path fill="url(#paint34_linear_101_338)" d="M134.81 164.488c-1.81.001-3.541-.529-4.989-1.531-15.314-10.595-27.096-23.585-35.02-38.609-7.924-15.026-11.888-31.902-11.784-50.157.014-2.297 1.13-4.445 3.064-5.893 1.476-1.105 3.332-1.713 5.225-1.713.508 0 1.31.126 2.524.317 2.507.394 6.702 1.055 11.744 1.055 9.201 0 17.534-2.185 24.766-6.494a8.814 8.814 0 014.475-1.227h.03c1.594 0 3.14.418 4.474 1.209 7.269 4.31 15.578 6.495 24.696 6.495 4.869 0 8.872-.61 11.522-1.013 1.297-.198 2.234-.34 2.828-.34 1.893 0 3.748.606 5.223 1.71 1.937 1.447 3.055 3.596 3.068 5.895.104 18.04-3.743 34.69-11.433 49.489-7.882 15.167-19.8 28.377-35.425 39.263a8.688 8.688 0 01-4.988 1.544z"/>
    <path fill="url(#paint35_linear_101_338)" d="M120.141 126.459c-3.262 0-5.916-2.311-5.916-5.151v-10.945c.013-11.218.049-11.367.129-11.693.536-2.194 2.676-3.83 5.204-4.05v-4.487c0-7.295 6.981-13.23 15.561-13.23 8.581 0 15.562 5.935 15.562 13.23v4.487c2.665.224 4.832 1.969 5.26 4.313.043.233.087.473.074 22.367 0 2.848-2.655 5.159-5.917 5.159h-29.957zm20.656-31.864a307.01 307.01 0 01.009-2.865c.013-1.858.006-2.02-.106-2.476-.524-2.138-2.871-3.69-5.581-3.69-2.709 0-5.056 1.552-5.58 3.69-.113.46-.119.599-.106 2.469.005.694.011 1.624.01 2.872h11.354z"/>
    <path fill="#fff" d="M153.659 99.287c-.258-1.411-1.712-2.558-3.561-2.558h-1.731v-6.596c0-6.176-6.011-11.096-13.247-11.096-7.249 0-13.247 4.931-13.247 11.096v6.596h-1.731c-1.794 0-3.204 1.077-3.529 2.41-.096.392-.073 22.155-.073 22.169 0 1.597 1.532 3.017 3.602 3.017h29.956c2.063 0 3.602-1.411 3.602-3.017 0-.012.014-21.72-.041-22.021zm-15.285 19.03h-6.508c-.416 0-.779-.161-1.016-.407a.992.992 0 01-.292-.665.957.957 0 01.029-.252l1.674-6.565c-1.217-.742-2.011-1.941-2.011-3.298 0-2.253 2.18-4.08 4.87-4.08s4.87 1.827 4.87 4.08c0 1.357-.794 2.556-2.012 3.298l1.674 6.565a.946.946 0 01.024.127.975.975 0 01-.286.79c-.237.246-.6.407-1.016.407zm-11.255-21.588c.049-6.556-.117-6.804.163-7.945.747-3.051 3.977-5.353 7.838-5.353 3.86 0 7.091 2.302 7.838 5.353.28 1.141.114 1.4.163 7.945h-16.002z"/>
  </g>
  <g>
    <path fill="url(#paint36_linear_101_338)" d="M203.3 170.333h-21.082a2.33 2.33 0 01-1.582-.604 1.978 1.978 0 01-.655-1.459v-28.171c0-.569.25-1.085.655-1.458a2.33 2.33 0 011.582-.604H203.3a2.33 2.33 0 011.582.604c.405.373.655.889.655 1.458v28.171c0 .57-.25 1.086-.655 1.459a2.33 2.33 0 01-1.582.604z" opacity=".8"/>
    <path fill="#FF5E00" d="M188.471 165.128h-1.11l.785-.724a.249.249 0 000-.373.304.304 0 00-.405 0l-.785.724v-1.023c0-.146-.128-.264-.286-.264-.158 0-.286.118-.286.264v1.023l-.786-.724a.303.303 0 00-.404 0 .249.249 0 000 .373l.785.724h-1.111c-.158 0-.286.118-.286.264 0 .146.128.264.286.264h1.111l-.785.724a.249.249 0 000 .373.3.3 0 00.202.077.298.298 0 00.202-.077l.786-.724v1.023c0 .146.128.264.286.264.158 0 .286-.118.286-.264v-1.023l.785.724a.3.3 0 00.203.077.3.3 0 00.202-.077.249.249 0 000-.373l-.785-.724h1.11c.158 0 .286-.118.286-.264 0-.146-.128-.264-.286-.264zM194.56 165.128h-1.11l.785-.724a.249.249 0 000-.373.303.303 0 00-.404 0l-.786.724v-1.023c0-.146-.128-.264-.286-.264-.158 0-.286.118-.286.264v1.023l-.785-.724a.304.304 0 00-.405 0 .249.249 0 000 .373l.785.724h-1.11c-.158 0-.286.118-.286.264 0 .146.128.264.286.264h1.11l-.785.724a.249.249 0 000 .373.303.303 0 00.405 0l.785-.724v1.024c0 .145.128.263.286.263.158 0 .286-.118.286-.263v-1.024l.786.724a.298.298 0 00.202.077.3.3 0 00.202-.077.249.249 0 000-.373l-.785-.724h1.11c.159 0 .287-.118.287-.264 0-.146-.128-.264-.287-.264zM200.65 165.128h-1.111l.785-.724a.249.249 0 000-.373.303.303 0 00-.404 0l-.786.724v-1.023c0-.146-.128-.264-.286-.264-.158 0-.286.118-.286.264v1.023l-.785-.724a.304.304 0 00-.405 0 .249.249 0 000 .373l.785.724h-1.11c-.158 0-.286.118-.286.264 0 .146.128.264.286.264h1.111l-.786.724a.249.249 0 000 .373.3.3 0 00.202.077.3.3 0 00.203-.077l.785-.724v1.024c0 .145.128.263.286.263.158 0 .286-.118.286-.263v-1.024l.786.724a.3.3 0 00.202.077.3.3 0 00.202-.077.249.249 0 000-.373l-.785-.724h1.111c.158 0 .286-.118.286-.264 0-.146-.128-.264-.286-.264z"/>
    <path fill="url(#paint37_linear_101_338)" d="M200.202 148.942a1.692 1.692 0 00-1.082-.375h-.735v-2.801c0-2.598-2.524-4.713-5.626-4.713-3.082 0-5.625 2.099-5.625 4.713v2.801h-.736c-.422 0-.805.144-1.082.375-.276.232-.448.553-.448.907v9.156c0 .354.172.674.448.906.277.232.66.376 1.082.376h12.722c.422 0 .805-.144 1.082-.376.276-.232.448-.552.448-.906v-9.156c0-.354-.172-.675-.448-.907zm-5.877 6.821l.359 1.41a.409.409 0 01-.111.389.596.596 0 01-.432.173h-2.764a.596.596 0 01-.432-.173.409.409 0 01-.111-.389l.711-2.788c-.517-.315-.854-.825-.854-1.401 0-.957.926-1.732 2.068-1.732s2.068.775 2.068 1.732c0 .576-.337 1.086-.854 1.401l.352 1.378zm1.832-7.196h-6.796v-2.801c0-1.604 1.569-2.846 3.398-2.846 1.856 0 3.398 1.263 3.398 2.846v2.801z"/>
  </g>
  <g>
    <path fill="url(#paint38_linear_101_338)" d="M105.813 160.134h-47.81a2.349 2.349 0 01-1.596-.61 1.995 1.995 0 01-.66-1.471V93.667c0-.575.252-1.095.66-1.471a2.35 2.35 0 011.597-.61h47.809c.624 0 1.188.233 1.597.61.408.376.661.896.661 1.471v64.386c0 .574-.253 1.095-.661 1.471a2.35 2.35 0 01-1.597.61z" opacity=".9"/>
    <path fill="#fff" d="M73.051 118.937H66.98v5.597h6.071v-5.597zM73.051 126.062H66.98v5.596h6.071v-5.596zM73.051 133.186H66.98v5.597h6.071v-5.597zM73.051 140.311H66.98v5.596h6.071v-5.596zM96.24 118.937h-6.072v5.597h6.072v-5.597zM96.24 126.062h-6.072v5.596h6.072v-5.596zM96.24 133.186h-6.072v5.597h6.072v-5.597zM96.24 140.311h-6.072v5.596h6.072v-5.596z"/>
    <g>
      <path fill="#fff" d="M88.51 118.937h-6.072v5.597h6.072v-5.597zM88.51 126.062h-6.072v5.596h6.072v-5.596zM88.51 133.186h-6.072v5.597h6.072v-5.597zM88.51 140.311h-6.072v5.596h6.072v-5.596z"/>
    </g>
    <g>
      <path fill="#fff" d="M80.78 118.937h-6.07v5.597h6.07v-5.597zM80.78 126.062h-6.07v5.596h6.07v-5.596zM80.78 133.186h-6.07v5.597h6.07v-5.597zM80.78 140.311h-6.07v5.596h6.07v-5.596z"/>
    </g>
    <path fill="#DCDCFF" d="M99.22 97.368H64.597v1.245h34.621v-1.245zM96.525 99.392H67.292v1.245h29.233v-1.245z"/>
    <g>
      <path fill="#fff" d="M74.392 114.774c.234 0 .423-.159.423-.354 0-.196-.19-.355-.423-.355-.233 0-.423.159-.423.355 0 .195.19.354.423.354zM76.595 114.774c.234 0 .423-.159.423-.354 0-.196-.19-.355-.423-.355-.233 0-.423.159-.423.355 0 .195.19.354.423.354zM78.798 114.774c.234 0 .423-.159.423-.354 0-.196-.189-.355-.423-.355-.233 0-.423.159-.423.355 0 .195.19.354.423.354zM81.001 114.774c.234 0 .423-.159.423-.354 0-.196-.189-.355-.423-.355-.233 0-.423.159-.423.355 0 .195.19.354.423.354zM83.204 114.774c.234 0 .424-.159.424-.354 0-.196-.19-.355-.424-.355-.233 0-.423.159-.423.355 0 .195.19.354.423.354zM85.407 114.774c.234 0 .424-.159.424-.354 0-.196-.19-.355-.424-.355-.233 0-.423.159-.423.355 0 .195.19.354.424.354zM87.61 114.774c.234 0 .424-.159.424-.354 0-.196-.19-.355-.423-.355-.234 0-.424.159-.424.355 0 .195.19.354.424.354zM89.814 114.774c.233 0 .423-.159.423-.354 0-.196-.19-.355-.423-.355-.234 0-.424.159-.424.355 0 .195.19.354.424.354z"/>
      <g>
        <path fill="#fff" d="M95.853 109.062H67.366a.4.4 0 01-.273-.105.341.341 0 01-.113-.252v-3.583c0-.098.043-.187.113-.252a.405.405 0 01.273-.104h28.487c.107 0 .203.04.273.104.07.065.114.154.114.252v3.583a.342.342 0 01-.114.252.401.401 0 01-.273.105z"/>
        <path fill="#6574F8" d="M95.853 115.738H67.366a.405.405 0 01-.273-.104.343.343 0 01-.113-.252v-3.583a.34.34 0 01.113-.252.4.4 0 01.273-.105h28.487c.107 0 .203.04.273.105a.34.34 0 01.114.252v3.583a.343.343 0 01-.114.252.405.405 0 01-.273.104z"/>
        <path fill="#6B49ED" d="M70.455 107.054c.32 0 .835-.481.835-.995s-.372-.867-.85-.867c-.459 0-.83.353-.83.867s.515.995.845.995zM72.157 108.145a.826.826 0 00-.157-.352.757.757 0 00-.296-.214 3.59 3.59 0 00-.573-.198 2.864 2.864 0 00-.681-.085c-.24 0-.469.033-.68.085a3.59 3.59 0 00-.575.198.757.757 0 00-.295.214.825.825 0 00-.158.352 8.71 8.71 0 00-.055.49h3.525a8.873 8.873 0 00-.055-.49z"/>
        <path fill="#fff" d="M70.45 111.877c-.477 0-.863.358-.863.796v.702c0 .087.076.157.17.157.095 0 .171-.07.171-.157v-.702a.45.45 0 01.09-.268.535.535 0 01.432-.213c.18 0 .338.085.432.213a.45.45 0 01.09.268v.702c0 .087.076.157.17.157.095 0 .171-.07.171-.157v-.702c0-.438-.386-.796-.863-.796z"/>
        <path fill="#fff" d="M71.592 113.209a.245.245 0 00-.166-.063h-1.952a.244.244 0 00-.166.063.21.21 0 00-.069.153v1.546c0 .06.026.114.069.153a.24.24 0 00.166.064h1.952a.241.241 0 00.166-.064.207.207 0 00.069-.153v-1.546a.21.21 0 00-.07-.153zm-.902 1.152l.055.238a.075.075 0 01-.017.066.09.09 0 01-.066.029h-.424a.09.09 0 01-.067-.029.075.075 0 01-.017-.066l.11-.471a.285.285 0 01-.132-.236c0-.162.142-.293.318-.293.175 0 .317.131.317.293a.285.285 0 01-.131.236l.054.233z"/>
        <g>
          <path fill="#6B49ED" d="M76.578 107.296c.229 0 .414-.171.414-.382s-.185-.383-.414-.383c-.23 0-.415.172-.415.383 0 .211.186.382.415.382zM78.737 107.296c.229 0 .414-.171.414-.382s-.185-.383-.414-.383c-.23 0-.415.172-.415.383 0 .211.186.382.415.382zM80.895 107.296c.23 0 .415-.171.415-.382s-.186-.383-.415-.383c-.228 0-.414.172-.414.383 0 .211.186.382.415.382zM83.055 107.296c.228 0 .414-.171.414-.382s-.185-.383-.414-.383c-.23 0-.415.172-.415.383 0 .211.186.382.415.382zM85.213 107.296c.23 0 .415-.171.415-.382s-.186-.383-.415-.383c-.229 0-.414.172-.414.383 0 .211.185.382.414.382zM87.372 107.296c.23 0 .415-.171.415-.382s-.186-.383-.415-.383c-.229 0-.414.172-.414.383 0 .211.185.382.414.382zM89.531 107.296c.23 0 .415-.171.415-.382s-.186-.383-.415-.383c-.229 0-.414.172-.414.383 0 .211.185.382.414.382zM91.69 107.296c.23 0 .415-.171.415-.382s-.186-.382-.415-.382c-.229 0-.415.171-.415.382s.186.382.415.382z"/>
        </g>
        <g>
          <path fill="#fff" d="M76.578 114.274c.229 0 .414-.171.414-.382s-.185-.382-.414-.382c-.23 0-.415.171-.415.382s.186.382.415.382zM78.737 114.274c.229 0 .414-.171.414-.382s-.185-.382-.414-.382c-.23 0-.415.171-.415.382s.186.382.415.382zM80.895 114.274c.23 0 .415-.171.415-.382s-.186-.382-.415-.382c-.228 0-.414.171-.414.382s.186.382.415.382zM83.055 114.274c.228 0 .414-.171.414-.382s-.185-.382-.414-.382c-.23 0-.415.171-.415.382s.186.382.415.382zM85.213 114.274c.23 0 .415-.171.415-.382s-.186-.382-.415-.382c-.229 0-.414.171-.414.382s.185.382.414.382zM87.372 114.274c.23 0 .415-.171.415-.382s-.186-.382-.415-.382c-.229 0-.414.171-.414.382s.185.382.414.382zM89.531 114.274c.23 0 .415-.171.415-.382s-.186-.382-.415-.382c-.229 0-.414.171-.414.382s.185.382.414.382zM91.69 114.274c.23 0 .415-.171.415-.382s-.186-.382-.415-.382c-.229 0-.415.171-.415.382s.186.382.415.382z"/>
        </g>
      </g>
    </g>
    <g>
      <path fill="#DCDCFF" d="M99.22 149.973H64.597v1.245h34.621v-1.245zM96.525 151.996H67.292v1.245h29.233v-1.245z"/>
    </g>
    <g>
      <path fill="#6B49ED" d="M81.626 143.278h-.017c-2.508 0-4.786-1.498-6.252-4.109-.777-1.384-1.308-3.067-1.538-4.866-.023-.178.115-.339.307-.36.193-.021.368.106.39.284.22 1.723.727 3.329 1.465 4.644 1.34 2.389 3.392 3.759 5.629 3.759h.016c.194 0 .352.145.352.324 0 .179-.158.324-.352.324zm2.124-.406a.353.353 0 01-.324-.198c-.076-.164.008-.354.186-.424 1.45-.569 2.705-1.737 3.626-3.379 1.025-1.827 1.59-4.177 1.59-6.619v-.012c0-.178.157-.323.35-.323.195 0 .352.145.352.323v.012c0 2.543-.592 5-1.668 6.917-.997 1.777-2.372 3.049-3.975 3.677a.388.388 0 01-.137.026zm-9.71-10.294c-.194 0-.351-.143-.351-.322 0-2.543.592-5.003 1.668-6.92 1-1.781 2.377-3.054 3.983-3.681.179-.069.385.008.46.172.076.165-.007.355-.186.425-1.454.567-2.71 1.736-3.633 3.381-1.025 1.827-1.59 4.178-1.59 6.619 0 .179-.157.326-.35.326zm15.01-2.023c-.176 0-.327-.121-.348-.285-.22-1.72-.727-3.323-1.464-4.637-1.34-2.389-3.392-3.759-5.629-3.759-.194 0-.355-.145-.355-.324 0-.179.153-.324.347-.324 2.508 0 4.796 1.498 6.261 4.11.776 1.382 1.307 3.062 1.538 4.858.022.177-.116.338-.308.359-.014.002-.028.002-.042.002z"/>
      <path fill="#6B49ED" d="M81.621 141.254h-.011c-1.814 0-3.491-1.136-4.603-3.117-.903-1.609-1.4-3.699-1.4-5.885 0-.542.03-1.086.092-1.616.02-.177.192-.307.386-.287.193.018.333.178.313.356a13.588 13.588 0 00-.088 1.547c0 2.084.47 4.068 1.322 5.588.986 1.758 2.436 2.766 3.977 2.766h.012c.194 0 .352.145.352.324 0 .179-.158.324-.352.324zm2.157-.632a.36.36 0 01-.294-.145.309.309 0 01.099-.449c.773-.472 1.466-1.229 2.005-2.188.852-1.519 1.322-3.504 1.322-5.588 0-1.239-.172-2.48-.496-3.587-.05-.173.06-.35.248-.397.187-.046.38.056.43.228.346 1.178.52 2.442.52 3.756 0 2.186-.497 4.276-1.4 5.885-.593 1.057-1.368 1.898-2.24 2.431a.367.367 0 01-.194.054zm-7.315-11.707a.36.36 0 01-.092-.011c-.187-.046-.298-.224-.248-.397.227-.78.525-1.5.884-2.14 1.112-1.981 2.79-3.117 4.602-3.117 1.814 0 3.492 1.136 4.603 3.117l.05.09c.087.16.017.355-.156.435a.366.366 0 01-.472-.143l-.046-.085c-.987-1.758-2.437-2.766-3.978-2.766-1.542 0-2.992 1.008-3.978 2.767a9.585 9.585 0 00-.83 2.01.348.348 0 01-.34.24z"/>
      <path fill="#6B49ED" d="M81.613 138.701c-1.32 0-2.541-.821-3.344-2.251-.645-1.15-1-2.64-1-4.198 0-1.557.355-3.048 1-4.197.268-.478.585-.892.942-1.231a.372.372 0 01.497-.007c.14.124.143.329.008.458a4.543 4.543 0 00-.822 1.077c-.595 1.059-.922 2.444-.922 3.9s.327 2.841.922 3.9c.677 1.208 1.673 1.901 2.72 1.901.195 0 .356.145.356.324 0 .179-.163.324-.357.324zm2.146-.925a.366.366 0 01-.245-.091.306.306 0 01-.008-.458 4.56 4.56 0 00.82-1.075c.594-1.059.921-2.444.921-3.9s-.327-2.841-.921-3.9c-.678-1.207-1.67-1.901-2.718-1.901-.194 0-.354-.145-.354-.324 0-.179.157-.324.352-.324v.324-.324c1.323 0 2.541.821 3.344 2.252.645 1.149 1 2.64 1 4.197 0 1.558-.355 3.048-1 4.198a5.22 5.22 0 01-.939 1.228.368.368 0 01-.252.098z"/>
      <path fill="#6B49ED" d="M81.612 135.966c-.79 0-1.519-.483-1.99-1.324-.369-.656-.572-1.505-.572-2.39 0-.885.203-1.734.572-2.39.472-.841 1.196-1.324 1.987-1.324.792 0 1.516.483 1.989 1.324.368.656.57 1.505.57 2.39a5.24 5.24 0 01-.353 1.933c-.067.168-.27.254-.45.191-.183-.062-.276-.248-.209-.416a4.63 4.63 0 00.31-1.708c0-.783-.175-1.526-.492-2.092-.348-.619-.845-.974-1.365-.974-.519 0-1.016.355-1.363.974-.318.566-.493 1.309-.493 2.092 0 .783.175 1.526.493 2.092.347.619.844.974 1.364.974l.013.001c.194 0 .348.145.348.323 0 .179-.165.324-.36.324z"/>
      <path fill="#6B49ED" d="M81.61 133.411c-.224 0-.433-.143-.573-.393a1.59 1.59 0 01-.182-.766c0-.285.064-.557.182-.766.14-.249.349-.393.573-.393.224 0 .432.144.573.393.117.209.181.481.181.766 0 .285-.064.557-.181.766-.14.25-.35.393-.573.393z"/>
    </g>
  </g>
  <g>
    <path fill="url(#paint39_linear_101_338)" d="M46.206 130.374c-3.494 3.476 7.21 12.851 9.936 12.851 4.061 0 7.677-11.294 6.428-11.643-1.25-.349-4.847 7.231-6.268 7.231-1.422 0-6.601-11.915-10.096-8.439z"/>
    <path fill="url(#paint40_linear_101_338)" d="M62.57 131.582c.465.187 3.158-2.778 1.61-3.401l-1.61 3.401z"/>
    <path fill="#FF5E00" d="M62.57 131.787a.232.232 0 01-.089-.018c-.113-.045-.164-.166-.115-.269l2.275-4.807c.05-.104.18-.151.293-.106.113.046.164.166.115.27l-2.275 4.807a.224.224 0 01-.204.123z"/>
    <path fill="url(#paint41_linear_101_338)" d="M52.09 129.335c-.507-1.198-.995-2.262-.728-3.328l-3.596-.765s.12.872-.72 2.267c.639.645 2.089 1.64 5.044 1.826z"/>
    <path fill="#E80A00" d="M52.84 131.544a15.392 15.392 0 00-.724-2.146.116.116 0 00-.1-.068c-2.803-.191-4.234-1.113-4.9-1.752a.127.127 0 00-.154-.015c-1.812 1.171-3.146 2.949-3.455 5.047-.498 3.386 1.04 7.785 1.04 10.094h7.087s2.378-6.563 1.207-11.16z"/>
    <path fill="url(#paint42_linear_101_338)" d="M51.703 118.107c-1.91-.142-4.032 1.393-3.888 4.107.033.62.21 1.22.488 1.767.735 1.444 2.179 2.519 3.564 2.622 1.262.093 2.378-1.377 2.792-3.223.068-.302.118-.615.146-.933.197-2.255-1.192-4.198-3.102-4.34z"/>
    <path fill="#E80A00" d="M51.464 178.75h4.937c.505 0 .704-.611.278-.862-1.39-.816-5.215.318-5.215.862z"/>
    <path fill="url(#paint43_linear_101_338)" d="M51.634 142.704H44.61s-3.112 5.573-1.578 9.53c1.535 3.958 3.025 4.696 4.074 8.326.76 2.626.822 6.698 1.426 9.58 1.08 5.15 2.51 8.65 2.932 8.61.728-.07 1.173-8.948 1.786-17.382.499-6.872-1.616-18.664-1.616-18.664z"/>
    <g>
      <path fill="#FF5E00" d="M42.607 149.079c-.081 4.203 3.79 6.126 1.52 10.067-1.383 2.4-3.939 5.68-5.438 8.268-2.68 4.628-3.528 7.586-3.173 7.799.613.369 6.593-5.678 12.83-11.873 2.1-2.086 3.399-5.323 3.763-8.459.391-3.377-.475-12.177-.475-12.177h-7.086s-2.178 4.052-1.94 6.375z"/>
      <path fill="#E80A00" d="M35.516 175.213c-.358.286 1.683 4.012 2.874 3.062 1.192-.95-2.516-3.347-2.874-3.062z"/>
    </g>
    <g>
      <path fill="url(#paint44_linear_101_338)" d="M45.839 130.807c-5.183.556-.514 10.53 2.356 12.439 2.066 1.376 11.818 4.799 11.743 4.113-.076-.685-8.457-6.869-9.117-7.906-.704-1.108-1.228-9.048-4.982-8.646z"/>
      <path fill="url(#paint45_linear_101_338)" d="M59.938 147.359c-.172.441 3.214 2.723 3.787 1.258.573-1.466-3.615-1.698-3.787-1.258z"/>
    </g>
    <g>
      <path fill="url(#paint46_linear_101_338)" d="M38.431 133.614c.373 1.669 1.557 3.078 3.236 3.792 2.374 1.01 4.357.334 5.12-.908 1.46-2.375-1.608-4.187-.474-6.647.774-1.677 2.575-1.626 3.16-3.294.57-1.628-.958-2.905-1.194-3.647-.134-.421-.028-.952.39-1.161.317-.16.724-.086 1.026.098.15.092.285.215.408.35a1.31 1.31 0 001.033.422c3.175-.169 4.058-3.145 2.894-4.449-1.359-1.52-4.714-3.183-7.843-.929-1.88 1.355-2.416 3.75-3.256 5.598-1.15 2.533-5.546 6.087-4.5 10.775z"/>
      <path fill="#FF8A02" d="M43.451 137.198l-.03-.004c-1.812-.413-3.156-1.389-3.886-2.822-.835-1.64-.74-3.674.26-5.582.546-1.043 1.075-1.738 1.636-2.474.59-.776 1.202-1.579 1.865-2.853.233-.448.416-1.003.627-1.645.189-.572.402-1.22.686-1.88 1.106-2.577 3.253-3.227 4.858-3.319 1.148-.067 2.988.515 3.956 1.566.58.63.691 1.395.306 2.1-.441.807-1.408 1.328-2.352 1.272-.27-.016-.595-.122-.94-.234-.886-.287-1.89-.614-2.593.245-.617.755-.182 1.595.239 2.408.254.49.493.953.484 1.373-.014.67-.615 1.229-1.31 1.876-.397.369-.847.787-1.241 1.276-1.23 1.525-.872 2.526-.458 3.684.271.759.579 1.62.432 2.71a.12.12 0 01-.138.099c-.068-.007-.116-.065-.108-.127.14-1.04-.145-1.838-.422-2.611-.417-1.168-.811-2.271.495-3.891.405-.503.861-.927 1.264-1.301.685-.638 1.226-1.141 1.238-1.719.008-.367-.22-.806-.46-1.27-.432-.834-.921-1.779-.213-2.645.812-.991 2.003-.605 2.873-.322.328.106.638.207.874.221.833.054 1.723-.431 2.114-1.147.2-.364.428-1.087-.273-1.849-.919-.997-2.665-1.548-3.752-1.485-1.533.087-3.584.709-4.643 3.174-.28.652-.491 1.295-.678 1.862-.215.652-.4 1.214-.641 1.678-.672 1.291-1.29 2.102-1.886 2.886-.555.728-1.078 1.415-1.617 2.442-.967 1.845-1.06 3.808-.258 5.385.698 1.368 1.984 2.301 3.722 2.698.066.015.107.077.09.138a.123.123 0 01-.12.087z"/>
      <path fill="#FF8A02" d="M44.101 136.103a.131.131 0 01-.044-.007c-1.96-.679-3.524-3.005-3.282-4.881.284-2.203 1.56-3.985 2.586-5.417.577-.804 1.074-1.498 1.281-2.1a5.12 5.12 0 00.145-.652c.211-1.144.564-3.058 2.667-4.195 1.39-.752 3.057-.735 4.693.049.06.029.084.098.053.154a.13.13 0 01-.167.049c-1.558-.746-3.14-.765-4.453-.055-2.004 1.083-2.344 2.932-2.548 4.036a5.17 5.17 0 01-.153.683c-.218.632-.724 1.339-1.31 2.157-1.012 1.412-2.27 3.169-2.548 5.318-.226 1.751 1.292 4.005 3.124 4.64.064.022.096.088.072.147a.124.124 0 01-.116.074z"/>
    </g>
  </g>
  <g>
    <g filter="url(#filter0_i_101_338)">
      <path fill="#9897E0" d="M260.082 50.379c-.653 0-1.3.127-1.903.375a4.969 4.969 0 00-1.613 1.067 4.92 4.92 0 00-1.457 3.482v39.394a4.92 4.92 0 001.457 3.482 5.014 5.014 0 003.516 1.442h29.836c.653 0 1.3-.127 1.903-.374a4.969 4.969 0 001.613-1.068c.462-.457.828-1 1.078-1.598.25-.597.379-1.238.378-1.884V65.15L279.972 50.38h-7.459v4.924h-4.972v4.924h4.972v4.924h-4.972v4.925h4.972v19.697h-9.944V75h4.972v-4.924h-4.972v-4.925h4.972v-4.924h-4.972v-4.924h4.972V50.38h-7.459zm17.405 4.924l12.431 12.31h-12.431v-12.31z"/>
      <path fill="#9897E0" d="M265.054 82.386h4.974v4.924h-4.974v-4.924z"/>
    </g>
  </g>
  <g>
    <g filter="url(#filter1_i_101_338)">
      <path fill="#9897E0" d="M250.298 108.532c0-2.184.867-4.278 2.411-5.823a8.237 8.237 0 015.823-2.411h24.702c2.184 0 4.278.867 5.823 2.411a8.237 8.237 0 012.411 5.823v24.702a8.237 8.237 0 01-2.411 5.823 8.237 8.237 0 01-5.823 2.411h-24.702a8.237 8.237 0 01-5.823-2.411 8.237 8.237 0 01-2.411-5.823v-24.702zm18.527 10.293h-8.235a2.049 2.049 0 00-1.938 1.261 2.056 2.056 0 001.938 2.855h8.235v8.234a2.049 2.049 0 001.261 1.939 2.056 2.056 0 002.855-1.939v-8.234h8.234a2.053 2.053 0 001.482-.588 2.05 2.05 0 00.618-1.47 2.056 2.056 0 00-1.299-1.913 2.035 2.035 0 00-.801-.145h-8.234v-8.235a2.051 2.051 0 00-.588-1.481 2.05 2.05 0 00-1.47-.618 2.056 2.056 0 00-1.913 1.299 2.033 2.033 0 00-.145.8v8.235zm16.468 26.76a10.292 10.292 0 0010.292-10.291v-29.776a8.235 8.235 0 014.117 7.131v22.643a14.41 14.41 0 01-14.409 14.41h-22.645a8.236 8.236 0 01-7.13-4.117h29.775z"/>
    </g>
  </g>
  <g>
    <g filter="url(#filter2_i_101_338)">
      <path fill="#9897E0" d="M274.539 150.232v16.512c0 1.095.432 2.145 1.203 2.919a4.097 4.097 0 002.904 1.209h16.429l.002.161v23.781a4.97 4.97 0 01-1.443 3.503 4.936 4.936 0 01-3.486 1.451h-31.219a4.916 4.916 0 01-3.485-1.451 4.964 4.964 0 01-1.444-3.503v-39.628c0-1.314.519-2.574 1.444-3.503a4.916 4.916 0 013.485-1.451h15.61z"/>
      <path fill="#9897E0" d="M277.619 151.212v15.532c.001.274.109.536.302.73.192.193.454.302.726.302h15.407a5.693 5.693 0 00-.63-.755l-15.262-15.338a5.064 5.064 0 00-.543-.471z"/>
    </g>
  </g>
  <g>
    <g filter="url(#filter3_i_101_338)">
      <path fill="#9897E0" d="M290.625 43.75h-31.25V37.5l9.375-15.625L281.59 37.5l9.035-6.25v12.5zm0-20.313a4.682 4.682 0 01-2.896 4.332 4.692 4.692 0 01-6.126-2.54 4.69 4.69 0 119.022-1.791z"/>
      <path fill="#9897E0" d="M294.815 11.185c-1.084-1.479-2.596-3.21-4.256-4.87-1.659-1.659-3.39-3.171-4.868-4.256C283.172.213 281.95 0 281.25 0h-24.219a3.912 3.912 0 00-3.906 3.907v42.186A3.912 3.912 0 00257.031 50h35.938a3.912 3.912 0 003.906-3.907V15.625c0-.7-.213-1.921-2.06-4.44zm-6.468-2.657c1.5 1.5 2.675 2.85 3.544 3.972h-7.519V4.985c1.122.868 2.475 2.043 3.972 3.543h.003zm5.403 37.566a.79.79 0 01-.781.78h-35.938a.79.79 0 01-.781-.78V3.906c0-.421.36-.78.781-.78h24.219v10.937a1.554 1.554 0 00.458 1.104 1.557 1.557 0 001.105.458h10.937v30.469z"/>
    </g>
  </g>
  <g>
    <path fill="#E1E2FE" d="M302.714 126.986a60.04 60.04 0 01-.236-10.006c.946-15.663 8.013-30.76 18.976-41.731 3.911-3.914 8.406-7.473 10.828-12.493 4.079-8.455 3.268-17.88 8.435-26.288 5.172-8.419 12.983-15.185 21.987-18.925 26.844-11.152 65.89 2.604 64.127 36.51-.007.122-.011.299-.015.522-.109 7.03 5.553 12.633 12.393 12.436 25.244-.728 47.939 18.028 53.841 43.002 3.795 16.06-.21 34.099-11.222 46.189-8.22 9.025-19.587 14.347-31.033 18.198-22.95 7.721-47.374 10.382-71.494 9.18-22.578-1.126-46.602-6.48-62.011-23.407-8.22-9.031-13.264-20.903-14.576-33.187z" opacity=".41"/>
    <path fill="#E1E2FE" d="M418.071 15.542c.16 3.209 2.83 5.675 5.963 5.509 3.133-.167 5.544-2.904 5.384-6.113-.16-3.209-2.83-5.675-5.963-5.509-3.133.167-5.544 2.904-5.384 6.113zM327.498 15.396c.083 1.655 1.46 2.928 3.077 2.842 1.616-.086 2.86-1.498 2.777-3.154-.082-1.656-1.46-2.928-3.076-2.842-1.617.086-2.86 1.498-2.778 3.154zM496.122 83.236c.055 1.096.967 1.938 2.037 1.882 1.07-.057 1.893-.992 1.838-2.088-.054-1.096-.966-1.938-2.036-1.882-1.07.058-1.893.992-1.839 2.088zM469.204 183.699c.252 5.053 4.455 8.935 9.387 8.673 4.933-.262 8.727-4.571 8.475-9.623-.251-5.052-4.454-8.935-9.387-8.672-4.932.262-8.727 4.57-8.475 9.622z" opacity=".31"/>
    <path fill="#ECF1F7" d="M301.364 37.286c-2.799-4.944-1.153-11.28 3.676-14.152 4.83-2.871 14.369-3.186 17.169 1.758 2.799 4.944-4.617 9.71-7.493 14.612-4.012 6.838-10.552 2.726-13.352-2.218z" opacity=".47"/>
    <path fill="#E1E2FE" d="M330.832 192.252c-3.47 2.564-8.31 1.763-10.809-1.789-2.5-3.552-3.45-10.977.019-13.541 3.47-2.564 7.574 2.863 11.439 4.735 5.39 2.61 2.821 8.032-.649 10.595zM468.346 5.036c3.759-3.964 9.942-4.058 13.808-.211 3.867 3.847 6.64 12.853 2.88 16.817-3.759 3.964-10.02-1.85-15.221-3.304-7.255-2.028-5.227-9.338-1.467-13.302z" opacity=".47"/>
    <path fill="#E1E2FE" d="M309.784 59.244c-2.539 7.335-3.231 15.35-1.588 22.933 2.21 10.195 9.821 19.157 8.524 30.03-.779 6.525-.64 12.506-.797 18.916-.322 13.164 8.846 24.061 19.602 29.516 8.735 4.43 18.668 5.598 28.256 4.752 8.629-.762 17.127-3.035 25.329-5.852 7.905-2.715 15.578-6.088 24.101-5.836 7.089.211 13.662 2.854 20.389 4.689 16.061 4.382 35.062 3.759 48.713-5.738 14.963-10.409 21.007-30.162 15.778-47.423-2.805-9.258-6.549-17.283-5.195-27.148.667-4.852 1.661-9.791.743-14.602-.844-4.428-3.264-8.413-6.134-11.882-7.738-9.353-18.754-15.317-30.206-18.826-12.992-3.981-27.415-6.152-40.924-4.09-26.242 4.003-31.952.11-59.384-3.798-18.376-2.617-35.626 12.04-44 27.162a45.747 45.747 0 00-3.207 7.197z" opacity=".32"/>
    <g opacity=".83">
      <path fill="#E1E2FE" d="M322.485 80.428c3.779-5.003 9.622-8.4 12.485-14.15 3.427-6.882 2.705-15.005 5.766-22.037 4.523-10.39 12.714-19.214 22.972-24.06 4.944-2.337 10.369-3.757 15.662-3.35 8.159.628 15.197 5.5 20.701 11.32 8.19 8.66 13.982 20.96 23.812 27.9 5.425 3.828 11.8-.234 17.547-1.523 6.5-1.457 13.254-1.115 19.463.659 11.435 3.265 21.283 11.483 26.208 22.32 5.258 11.568 4.511 27.562-5.359 37.509-4.565 4.601-10.757 7.677-14.146 13.188-4.252 6.917-4.751 16.267-5.938 23.958-1.311 8.493-4.93 16.768-10.368 23.634l-.186.233c-9.449 11.784-25.576 15.758-39.17 9.849l-28.926-12.571c-29.35-12.757-51.632-33.312-62.329-63.102-2.315-6.446-3.156-20.19-.207-26.482a18.474 18.474 0 012.013-3.295z" opacity=".81"/>
    </g>
    <path fill="#3E479B" d="M457.715 185.826a1.967 1.967 0 001.963-1.97c0-1.088-.879-1.97-1.963-1.97a1.967 1.967 0 00-1.964 1.97c0 1.088.88 1.97 1.964 1.97zM408.028 11.834c.542 0 .981-.441.981-.985a.983.983 0 00-.981-.985.983.983 0 00-.982.985c0 .544.439.985.982.985zM347.437 190.556a1.967 1.967 0 001.963-1.97c0-1.088-.879-1.97-1.963-1.97a1.967 1.967 0 00-1.964 1.97c0 1.088.879 1.97 1.964 1.97z" opacity=".58"/>
    <path fill="#EF929C" d="M465.713 199a1.53 1.53 0 001.527-1.532 1.53 1.53 0 00-1.527-1.532 1.53 1.53 0 00-1.528 1.532 1.53 1.53 0 001.528 1.532z" opacity=".58"/>
    <path fill="#3E479B" d="M315.474 12.894a.655.655 0 00.654-.656.655.655 0 10-.654.656z" opacity=".58"/>
    <path fill="#EF929C" d="M492.687 32.083a2.362 2.362 0 002.358-2.365 2.362 2.362 0 00-2.358-2.365 2.361 2.361 0 00-2.357 2.365 2.36 2.36 0 002.357 2.365zM322.025 6.852a.926.926 0 00.925-.927.926.926 0 00-.925-.928.926.926 0 00-.924.928c0 .512.414.927.924.927zM415.669 3.855a.926.926 0 00.925-.927.926.926 0 00-.925-.928.926.926 0 00-.924.928c0 .512.414.927.924.927z" opacity=".58"/>
    <path fill="#3E479B" d="M480.76 32.872a.787.787 0 00.786-.788.787.787 0 00-.786-.789.787.787 0 00-.786.789c0 .435.352.788.786.788zM307.306 168.739a.787.787 0 00.786-.788.787.787 0 10-1.571 0c0 .435.351.788.785.788z" opacity=".58"/>
    <g>
      <g opacity=".66">
        <path fill="#fff" d="M452.068 85.597h-3.406a2.6 2.6 0 01-2.593-2.601v-3.844c0-.72-.454-1.371-1.13-1.62a15.76 15.76 0 01-1.191-.495 1.739 1.739 0 00-1.959.337l-2.709 2.718a2.57 2.57 0 01-1.833.761c-.693 0-1.344-.27-1.834-.761l-2.408-2.416a2.61 2.61 0 010-3.679l2.709-2.718c.508-.51.643-1.3.336-1.965a15.699 15.699 0 01-.493-1.195 1.73 1.73 0 00-1.616-1.134h-3.831a2.6 2.6 0 01-2.593-2.6v-3.418a2.6 2.6 0 012.593-2.6h3.831a1.73 1.73 0 001.616-1.134c.146-.402.312-.804.493-1.195a1.753 1.753 0 00-.336-1.965l-2.709-2.718a2.61 2.61 0 010-3.68l2.408-2.415a2.59 2.59 0 013.667 0l2.709 2.718c.508.51 1.295.645 1.959.336.391-.181.792-.347 1.191-.494.676-.25 1.13-.9 1.13-1.621v-3.843a2.6 2.6 0 012.593-2.602h3.406a2.6 2.6 0 012.593 2.602v3.843c0 .72.454 1.372 1.13 1.62.399.148.8.314 1.191.495a1.737 1.737 0 001.959-.336l2.709-2.718a2.591 2.591 0 013.668 0l2.408 2.416a2.612 2.612 0 010 3.679l-2.71 2.718a1.75 1.75 0 00-.335 1.965c.18.391.346.793.493 1.195a1.728 1.728 0 001.616 1.133h3.831a2.6 2.6 0 012.593 2.602v3.416a2.6 2.6 0 01-2.593 2.601h-3.831c-.719 0-1.368.456-1.616 1.134-.146.4-.312.802-.493 1.194a1.751 1.751 0 00.335 1.966l2.71 2.718a2.612 2.612 0 010 3.679l-2.408 2.415a2.575 2.575 0 01-1.834.762c-.693 0-1.344-.27-1.834-.761l-2.709-2.718a1.738 1.738 0 00-1.959-.337c-.388.18-.788.347-1.191.495-.676.249-1.13.9-1.13 1.62v3.844a2.6 2.6 0 01-2.593 2.601zm-9.059-9.599c.374 0 .752.08 1.106.245.366.17.745.327 1.125.467a2.612 2.612 0 011.702 2.442v3.844c0 .952.772 1.726 1.72 1.726h3.406c.949 0 1.72-.774 1.72-1.726v-3.844c0-1.086.685-2.067 1.703-2.442.38-.14.758-.297 1.124-.467a2.611 2.611 0 012.943.512l2.709 2.718a1.72 1.72 0 002.434 0l2.408-2.416c.67-.673.67-1.768 0-2.441l-2.71-2.718a2.632 2.632 0 01-.51-2.952c.171-.37.328-.75.466-1.128a2.603 2.603 0 012.435-1.708h3.831c.949 0 1.72-.774 1.72-1.726v-3.416c0-.952-.771-1.727-1.72-1.727h-3.831a2.604 2.604 0 01-2.435-1.707c-.139-.38-.296-.759-.466-1.128a2.631 2.631 0 01.51-2.952l2.71-2.718c.67-.673.67-1.768 0-2.441l-2.408-2.416a1.72 1.72 0 00-2.434 0l-2.709 2.718a2.612 2.612 0 01-2.943.512 14.85 14.85 0 00-1.124-.467 2.613 2.613 0 01-1.703-2.443v-3.843c0-.952-.771-1.726-1.72-1.726h-3.406c-.948 0-1.72.774-1.72 1.726v3.843a2.612 2.612 0 01-1.702 2.443c-.377.138-.756.295-1.125.467a2.611 2.611 0 01-2.943-.512l-2.709-2.718a1.719 1.719 0 00-2.433 0l-2.408 2.416a1.733 1.733 0 000 2.44l2.709 2.719c.766.768.971 1.954.51 2.952-.17.37-.327.749-.465 1.128a2.605 2.605 0 01-2.435 1.708h-3.831c-.949 0-1.721.774-1.721 1.726v3.416c0 .952.772 1.726 1.721 1.726h3.831c1.083 0 2.061.686 2.435 1.708.138.378.295.758.466 1.128.46.997.255 2.184-.511 2.952l-2.709 2.718a1.732 1.732 0 000 2.44l2.408 2.417a1.72 1.72 0 002.433 0l2.709-2.718a2.593 2.593 0 011.837-.757zm7.356-1.307c-6.604 0-11.977-5.39-11.977-12.015 0-6.625 5.373-12.015 11.977-12.015s11.977 5.39 11.977 12.015c0 6.625-5.373 12.015-11.977 12.015zm0-23.155c-6.123 0-11.104 4.997-11.104 11.14 0 6.142 4.981 11.14 11.104 11.14 6.123 0 11.105-4.998 11.105-11.14 0-6.143-4.982-11.14-11.105-11.14z" opacity=".66"/>
        <path fill="#fff" d="M445.727 148.053h-4.249c-1.004 0-1.9-.63-2.246-1.576-.16-.438-.337-.867-.531-1.288a2.416 2.416 0 01.469-2.726l3.004-3.014a2.406 2.406 0 000-3.394l-2.67-2.679a2.387 2.387 0 00-3.383 0l-3.005 3.014a2.4 2.4 0 01-2.718.471 16.835 16.835 0 00-1.284-.534 2.4 2.4 0 01-1.57-2.253v-4.262c0-1.325-1.071-2.4-2.392-2.4h-3.777a2.396 2.396 0 00-2.392 2.4v4.262a2.4 2.4 0 01-1.571 2.253c-.436.161-.864.339-1.283.534a2.4 2.4 0 01-2.718-.471l-3.005-3.014a2.387 2.387 0 00-3.383 0l-2.67 2.679a2.406 2.406 0 000 3.394l3.004 3.014c.716.718.895 1.805.469 2.726-.194.421-.371.85-.532 1.288a2.391 2.391 0 01-2.245 1.576H400.8a2.396 2.396 0 00-2.392 2.4v3.789a2.396 2.396 0 002.392 2.399h4.249c1.004 0 1.9.63 2.245 1.576.161.438.338.867.532 1.288a2.416 2.416 0 01-.469 2.726l-3.004 3.015a2.405 2.405 0 000 3.393l2.67 2.679a2.387 2.387 0 003.383 0l3.005-3.014a2.4 2.4 0 012.718-.471c.419.195.847.373 1.283.534a2.4 2.4 0 011.571 2.253v4.262c0 1.326 1.071 2.4 2.392 2.4h3.777a2.396 2.396 0 002.392-2.4v-4.262c0-1.007.628-1.906 1.57-2.253.437-.161.865-.339 1.284-.534a2.4 2.4 0 012.718.471l3.005 3.014a2.387 2.387 0 003.383 0l2.67-2.679a2.405 2.405 0 000-3.393l-3.004-3.015a2.416 2.416 0 01-.469-2.726c.194-.421.371-.85.531-1.288a2.394 2.394 0 012.246-1.576h4.249a2.396 2.396 0 002.392-2.399v-3.789c0-1.326-1.071-2.4-2.392-2.4zm-22.464 17.133c-7.068 0-12.798-5.748-12.798-12.839s5.73-12.839 12.798-12.839c7.069 0 12.799 5.748 12.799 12.839s-5.73 12.839-12.799 12.839z" opacity=".84"/>
        <path fill="#fff" d="M379.276 173.581h-2.861a2.254 2.254 0 01-2.248-2.255v-3.229c0-.576-.364-1.097-.904-1.296a13.012 13.012 0 01-1.006-.417 1.388 1.388 0 00-1.566.269l-2.276 2.283c-.425.426-.99.66-1.59.66-.6 0-1.165-.234-1.59-.66l-2.022-2.03a2.242 2.242 0 01-.659-1.594c0-.603.234-1.169.659-1.595l2.275-2.283a1.4 1.4 0 00.268-1.572 13.04 13.04 0 01-.416-1.009 1.384 1.384 0 00-1.292-.907h-3.218a2.253 2.253 0 01-2.248-2.255v-2.87a2.254 2.254 0 012.248-2.255h3.218c.574 0 1.093-.364 1.292-.907.125-.342.265-.682.416-1.008a1.401 1.401 0 00-.268-1.572l-2.275-2.284a2.24 2.24 0 01-.659-1.594c0-.602.234-1.169.659-1.595l2.022-2.029a2.247 2.247 0 013.18 0l2.276 2.283a1.387 1.387 0 001.566.269c.326-.152.664-.292 1.006-.418.54-.199.904-.72.904-1.296v-3.229a2.254 2.254 0 012.248-2.255h2.861a2.255 2.255 0 012.248 2.255v3.229c0 .576.363 1.097.904 1.296.341.126.68.266 1.005.418a1.39 1.39 0 001.567-.269l2.276-2.283a2.246 2.246 0 013.179 0l2.023 2.029c.424.426.658.993.658 1.595s-.234 1.169-.658 1.594l-2.276 2.284a1.401 1.401 0 00-.268 1.572c.151.326.291.666.417 1.009a1.38 1.38 0 001.291.906h3.218a2.254 2.254 0 012.248 2.255v2.87a2.253 2.253 0 01-2.248 2.255h-3.218c-.574 0-1.093.365-1.291.907-.125.341-.265.68-.417 1.009a1.402 1.402 0 00.268 1.572l2.276 2.283c.424.426.658.992.658 1.595 0 .602-.234 1.168-.658 1.594l-2.023 2.03a2.23 2.23 0 01-1.59.66c-.6 0-1.165-.234-1.589-.66L385 166.653a1.389 1.389 0 00-1.567-.269c-.331.154-.669.294-1.006.418-.54.198-.903.719-.903 1.295v3.229a2.255 2.255 0 01-2.248 2.255zm-7.61-8.203c.324 0 .652.069.958.211.308.144.624.275.939.39a2.266 2.266 0 011.476 2.118v3.229c0 .761.617 1.38 1.376 1.38h2.861a1.38 1.38 0 001.375-1.38v-3.229c0-.941.593-1.792 1.476-2.117.314-.116.63-.247.939-.391a2.267 2.267 0 012.551.445l2.276 2.283c.52.521 1.425.521 1.945 0l2.023-2.03c.26-.261.403-.607.403-.975 0-.369-.143-.715-.403-.976l-2.276-2.283a2.282 2.282 0 01-.443-2.559c.142-.307.273-.624.389-.942a2.258 2.258 0 012.111-1.481h3.218a1.38 1.38 0 001.376-1.38v-2.87a1.38 1.38 0 00-1.376-1.38h-3.218a2.258 2.258 0 01-2.111-1.48c-.117-.32-.247-.637-.389-.942a2.282 2.282 0 01.443-2.559l2.276-2.283c.26-.261.403-.607.403-.976 0-.368-.143-.715-.403-.976l-2.023-2.029a1.374 1.374 0 00-1.945 0l-2.276 2.283a2.261 2.261 0 01-2.551.444 12.77 12.77 0 00-.939-.39 2.264 2.264 0 01-1.476-2.118v-3.229c0-.76-.617-1.379-1.375-1.379h-2.861a1.38 1.38 0 00-1.376 1.379v3.229c0 .942-.593 1.793-1.475 2.118-.32.118-.636.249-.94.39a2.26 2.26 0 01-2.55-.444l-2.276-2.283a1.375 1.375 0 00-1.946 0l-2.023 2.029a1.378 1.378 0 00-.402.976c0 .369.143.715.402.976l2.276 2.283c.664.666.842 1.694.443 2.559-.141.305-.272.622-.389.942a2.258 2.258 0 01-2.111 1.48h-3.218a1.38 1.38 0 00-1.376 1.38v2.87c0 .761.617 1.38 1.376 1.38h3.218c.939 0 1.787.595 2.111 1.481.116.318.247.635.389.942a2.282 2.282 0 01-.443 2.559l-2.276 2.283a1.376 1.376 0 00-.402.976c0 .368.143.714.402.975l2.023 2.03c.52.521 1.426.522 1.946 0l2.276-2.283a2.241 2.241 0 011.592-.656zm6.179-.959c-5.586 0-10.13-4.559-10.13-10.163s4.544-10.163 10.13-10.163c5.586 0 10.131 4.559 10.131 10.163s-4.545 10.163-10.131 10.163zm0-19.45c-5.105 0-9.258 4.166-9.258 9.287s4.153 9.288 9.258 9.288c5.105 0 9.258-4.167 9.258-9.288s-4.153-9.287-9.258-9.287z" opacity=".66"/>
      </g>
      <g opacity=".81">
        <path fill="#fff" d="M471.837 126.101h-5.688a.437.437 0 010-.875h5.688a.437.437 0 010 .875zM471.837 135.504h-5.688a.437.437 0 010-.875h5.688a.437.437 0 010 .875z" opacity=".81"/>
        <g opacity=".81">
          <g opacity=".81">
            <path fill="#fff" d="M475.858 145.001h-34.584a1.187 1.187 0 01-1.183-1.187v-29.007c0-.654.531-1.186 1.183-1.186h34.584c.652 0 1.183.532 1.183 1.186v29.007c0 .654-.531 1.187-1.183 1.187zm-34.584-30.505a.312.312 0 00-.311.311v29.007c0 .171.14.311.311.311h34.584c.171 0 .31-.14.31-.311v-29.007a.311.311 0 00-.31-.311h-34.584z" opacity=".81"/>
            <path fill="#fff" d="M475.858 145.001h-34.584a1.187 1.187 0 01-1.183-1.187v-29.007c0-.654.531-1.186 1.183-1.186h34.584c.652 0 1.183.532 1.183 1.186v29.007c0 .654-.531 1.187-1.183 1.187zm-34.584-30.505a.312.312 0 00-.311.311v29.007c0 .171.14.311.311.311h34.584c.171 0 .31-.14.31-.311v-29.007a.311.311 0 00-.31-.311h-34.584z" opacity=".66"/>
          </g>
          <path fill="#fff" d="M471.837 121.538h-27.105a.437.437 0 010-.875h27.105a.437.437 0 010 .875zM471.837 130.664h-27.105a.437.437 0 010-.875h27.105a.437.437 0 010 .875zM459.345 126.101h-14.613a.437.437 0 010-.875h14.613a.437.437 0 010 .875zM459.345 135.504h-14.613a.437.437 0 010-.875h14.613a.437.437 0 010 .875zM454.587 139.861h-9.855a.437.437 0 010-.876h9.855c.241 0 .436.196.436.438a.437.437 0 01-.436.438z" opacity=".81"/>
        </g>
      </g>
      <g opacity=".81">
        <path fill="#fff" d="M361.173 78.233h-6.453a.438.438 0 010-.875h6.453a.437.437 0 010 .875zM361.173 88.901h-6.453a.438.438 0 010-.875h6.453a.437.437 0 010 .875z" opacity=".81"/>
        <g opacity=".81">
          <g opacity=".81">
            <path fill="#fff" d="M365.835 99.675h-39.438a1.186 1.186 0 01-1.183-1.187v-33.11c0-.655.531-1.187 1.183-1.187h39.438c.653 0 1.183.532 1.183 1.187v33.11c0 .654-.53 1.187-1.183 1.187zm-39.438-34.609c-.171 0-.31.14-.31.312v33.11c0 .172.139.311.31.311h39.438c.171 0 .311-.14.311-.311v-33.11a.312.312 0 00-.311-.312h-39.438z" opacity=".81"/>
            <path fill="#fff" d="M365.835 99.675h-39.438a1.186 1.186 0 01-1.183-1.187v-33.11c0-.655.531-1.187 1.183-1.187h39.438c.653 0 1.183.532 1.183 1.187v33.11c0 .654-.53 1.187-1.183 1.187zm-39.438-34.609c-.171 0-.31.14-.31.312v33.11c0 .172.139.311.31.311h39.438c.171 0 .311-.14.311-.311v-33.11a.312.312 0 00-.311-.312h-39.438z" opacity=".66"/>
          </g>
          <path fill="#fff" d="M361.173 73.055h-30.752a.437.437 0 010-.875h30.752a.437.437 0 010 .875zM361.173 83.41h-30.752a.437.437 0 010-.875h30.752a.437.437 0 010 .875zM347.001 78.233h-16.58a.437.437 0 010-.875h16.58a.437.437 0 010 .875zM347.001 88.901h-16.58a.437.437 0 010-.875h16.58a.437.437 0 010 .875zM341.602 93.843h-11.181a.437.437 0 010-.875h11.181a.438.438 0 010 .875z" opacity=".81"/>
        </g>
      </g>
    </g>
    <g>
      <path fill="#3E479B" d="M474.787 63.552h-19.611c-.877 0-1.658.643-1.946 1.601l-.65 2.162c-.288.959-1.068 1.602-1.945 1.602H422.56c-1.138 0-2.06 1.067-2.06 2.384v31.888c0 1.317.922 2.384 2.06 2.384H474.787c1.215 0 2.199-1.067 2.199-2.384V65.936c0-1.316-.984-2.384-2.199-2.384z"/>
      <path fill="#6D6CD4" d="M454.751 69.253l.694-2.162c.307-.959 1.141-1.601 2.077-1.601h17.265c1.215 0 2.199 1.067 2.199 2.384v37.252c0 1.317-.984 2.385-2.199 2.385h-52.088c-1.214 0-2.199-1.068-2.199-2.385V73.238c0-1.317.985-2.384 2.199-2.384h29.975c.936 0 1.77-.642 2.077-1.601z"/>
      <path fill="#fff" d="M456.028 71.45l.654-2.038c.29-.903 1.076-1.509 1.958-1.509h16.273c1.145 0 2.073 1.006 2.073 2.248v35.112c0 1.242-.928 2.248-2.073 2.248h-49.096c-1.144 0-2.073-1.006-2.073-2.248V75.207c0-1.241.929-2.248 2.073-2.248h28.253c.883 0 1.668-.605 1.958-1.509z" opacity=".12"/>
      <path fill="#fff" d="M471.035 104.823h-12.884a.437.437 0 01-.436-.438c0-.242.195-.438.436-.438h12.884c.832 0 1.508-.678 1.508-1.512V92.181a.437.437 0 11.872 0v10.254a2.387 2.387 0 01-2.38 2.388z"/>
      <g>
        <path fill="#F28393" d="M320.958 99.819h19.738c.882 0 1.668.722 1.958 1.801l.654 2.432c.29 1.078 1.075 1.801 1.958 1.801h28.256c1.145 0 2.073 1.201 2.073 2.682v35.871c0 1.481-.928 2.682-2.073 2.682h-52.564c-1.223 0-2.214-1.201-2.214-2.682V102.501c0-1.482.991-2.682 2.214-2.682z"/>
        <path fill="#fff" d="M341.123 106.231l-.698-2.432c-.31-1.078-1.149-1.801-2.091-1.801h-17.376c-1.223 0-2.214 1.201-2.214 2.682v41.905c0 1.482.991 2.683 2.214 2.683h52.423c1.223 0 2.214-1.201 2.214-2.683v-35.87c0-1.482-.991-2.683-2.214-2.683h-30.168c-.942 0-1.781-.722-2.09-1.801z" opacity=".12"/>
        <path fill="#fff" d="M339.838 108.703l-.659-2.292c-.291-1.017-1.082-1.698-1.97-1.698h-16.378c-1.153 0-2.087 1.132-2.087 2.528v39.498c0 1.397.934 2.529 2.087 2.529h49.412c1.153 0 2.087-1.132 2.087-2.529v-33.81c0-1.396-.934-2.528-2.087-2.528h-28.435c-.888 0-1.679-.681-1.97-1.698z" opacity=".12"/>
        <path fill="#fff" d="M322.777 115.216c-.215 0-.39-.195-.39-.437v-6.076c0-.823.597-1.492 1.331-1.492h8.135c.215 0 .39.196.39.437 0 .242-.175.438-.39.438h-8.135c-.303 0-.55.277-.55.617v6.076c0 .242-.175.437-.391.437z"/>
      </g>
    </g>
    <g>
      <path fill="#C5D9FF" d="M428.445 80.998h-56.07c-9.311 0-16.859-7.573-16.859-16.913 0-9.341 7.548-16.913 16.859-16.913h56.07c9.312 0 16.86 7.572 16.86 16.913 0 9.34-7.548 16.913-16.86 16.913z"/>
      <path fill="#599AF2" d="M400.41 73.544c13.095 0 23.711-10.65 23.711-23.786 0-13.137-10.616-23.786-23.711-23.786-13.095 0-23.71 10.65-23.71 23.786 0 13.137 10.615 23.786 23.71 23.786z"/>
      <path fill="#599AF2" d="M428.445 76.015h-56.07c-9.311 0-16.859-7.573-16.859-16.913 0-9.341 7.548-16.913 16.859-16.913h56.07c9.312 0 16.86 7.572 16.86 16.913 0 9.34-7.548 16.913-16.86 16.913z"/>
      <path fill="#599AF2" d="M400.41 68.561c13.095 0 23.711-10.65 23.711-23.786 0-13.137-10.616-23.786-23.711-23.786-13.095 0-23.71 10.65-23.71 23.786 0 13.137 10.615 23.786 23.71 23.786z"/>
      <g opacity=".35">
        <g opacity=".35">
          <path fill="#ECF1F7" d="M428.445 76.015h-56.07c-9.311 0-16.859-7.573-16.859-16.913 0-9.341 7.548-16.913 16.859-16.913h56.07c9.312 0 16.86 7.572 16.86 16.913 0 9.34-7.548 16.913-16.86 16.913z" opacity=".35"/>
          <path fill="#ECF1F7" d="M400.41 68.561c13.095 0 23.711-10.65 23.711-23.786 0-13.137-10.616-23.786-23.711-23.786-13.095 0-23.71 10.65-23.71 23.786 0 13.137 10.615 23.786 23.71 23.786z" opacity=".35"/>
        </g>
      </g>
      <g>
        <path fill="#fff" d="M394.866 48.315a1.096 1.096 0 01-.765-1.875l6.363-6.275 6.262 6.282c.426.428.426 1.12 0 1.548a1.087 1.087 0 01-1.542 0l-4.733-4.748-4.821 4.754c-.212.21-.488.314-.764.314z"/>
        <path fill="#fff" d="M400.41 57.019c-.602 0-1.09-.49-1.09-1.095V41.706c0-.604.488-1.094 1.09-1.094.603 0 1.091.49 1.091 1.094v14.218c0 .605-.488 1.095-1.091 1.095z"/>
        <path fill="#fff" d="M410.721 63.77h-20.784a2.71 2.71 0 01-2.702-2.71v-7.575c0-.605.488-1.095 1.091-1.095.602 0 1.091.49 1.091 1.095v7.574c0 .288.233.523.52.523h20.784a.685.685 0 00.683-.686v-7.411c0-.605.489-1.095 1.091-1.095.603 0 1.091.49 1.091 1.095v7.41a2.873 2.873 0 01-2.865 2.875z"/>
      </g>
      <g>
        <path fill="#4C65BA" d="M433.393 136.174l-59.48 19.715a2.773 2.773 0 01-3.504-1.769l-19.652-59.67a2.785 2.785 0 011.764-3.516l59.48-19.714a2.772 2.772 0 013.504 1.769l19.652 59.67a2.784 2.784 0 01-1.764 3.515z" opacity=".36"/>
        <path fill="#fff" d="M429.022 133.967l-59.481 19.714a2.771 2.771 0 01-3.503-1.769l-19.652-59.67a2.784 2.784 0 011.763-3.515l59.48-19.715a2.772 2.772 0 013.504 1.77l19.652 59.67a2.785 2.785 0 01-1.763 3.515z"/>
        <path fill="#C5D9FF" d="M406.534 75.511l-53.72 17.805 17.749 53.891 53.719-17.805-17.748-53.89z"/>
        <path fill="#fff" d="M370.106 147.664l-4.018-12.201 5.878-14.213a4.063 4.063 0 014.984-2.343l10.88 3.39a1.45 1.45 0 001.681-.643l9.058-15.124c1.924-3.212 5.963-4.518 9.394-3.036l9.977 4.305.092.28 7.036 21.368-.621.205-54.341 18.012zm-2.622-12.149l3.455 10.49 52.476-17.394-6.534-19.839-9.435-4.072c-2.834-1.224-6.167-.145-7.755 2.507l-9.058 15.124a2.752 2.752 0 01-3.191 1.22l-10.88-3.39a2.762 2.762 0 00-3.388 1.593l-5.69 13.761zM388.042 105.64a6.974 6.974 0 01-6.616-4.794c-1.205-3.657.781-7.615 4.426-8.823 3.645-1.207 7.591.784 8.796 4.44 1.204 3.658-.782 7.616-4.427 8.824a6.9 6.9 0 01-2.179.353zm-.01-12.657c-.586 0-1.182.092-1.769.287-2.96.98-4.573 4.195-3.594 7.164.977 2.97 4.182 4.588 7.141 3.606 2.96-.981 4.573-4.195 3.595-7.164a5.666 5.666 0 00-5.373-3.893z" opacity=".47"/>
      </g>
      <g>
        <path fill="#4C65BA" d="M451.299 146.917h-46.435a2.777 2.777 0 01-2.773-2.782V97.552a2.778 2.778 0 012.773-2.783h46.435a2.778 2.778 0 012.774 2.783v46.583a2.778 2.778 0 01-2.774 2.782z" opacity=".36"/>
        <path fill="#fff" d="M448.661 144.271h-46.435a2.778 2.778 0 01-2.773-2.783V94.905a2.777 2.777 0 012.773-2.783h46.435a2.778 2.778 0 012.774 2.783v46.583a2.779 2.779 0 01-2.774 2.783z"/>
        <path fill="#F7A9B4" d="M446.978 96.564H403.85v43.266h43.128V96.563z" opacity=".39"/>
        <path fill="#fff" d="M447.692 140.206h-44.437v-10.009l7.68-8.921a3.25 3.25 0 014.375-.525l7.067 5.064a.95.95 0 001.178-.054l10.162-8.774a5.88 5.88 0 017.729.058l6.246 5.556v17.605zm-43.128-1.313h41.82v-15.701l-5.807-5.165a4.57 4.57 0 00-6.006-.044l-10.162 8.773a2.252 2.252 0 01-2.793.127l-7.067-5.064a1.95 1.95 0 00-2.624.315l-7.361 8.551v8.208zM428.072 114.359c-3.012 0-5.463-2.459-5.463-5.481s2.451-5.48 5.463-5.48 5.463 2.458 5.463 5.48c0 3.022-2.451 5.481-5.463 5.481zm0-9.648a4.165 4.165 0 00-4.154 4.167c0 2.298 1.863 4.168 4.154 4.168s4.154-1.87 4.154-4.168a4.165 4.165 0 00-4.154-4.167z" opacity=".47"/>
      </g>
      <g>
        <path fill="#4C65BA" d="M418.15 151.385l-26.25 9.867a2.771 2.771 0 01-3.571-1.629l-9.835-26.334a2.785 2.785 0 011.624-3.582l26.25-9.867a2.772 2.772 0 013.571 1.63l9.835 26.333a2.784 2.784 0 01-1.624 3.582z" opacity=".36"/>
        <path fill="#fff" d="M415.956 150.384l-26.25 9.867a2.77 2.77 0 01-3.57-1.629l-9.836-26.334a2.786 2.786 0 011.624-3.582l26.25-9.867a2.77 2.77 0 013.571 1.63l9.835 26.333a2.784 2.784 0 01-1.624 3.582z"/>
        <path fill="#599AF2" d="M405.079 121.563l-26.089 9.806 9.775 26.172 26.089-9.806-9.775-26.172z"/>
        <path fill="#fff" d="M388.355 158.204l-2.373-6.354 2.66-7.224a2.332 2.332 0 012.805-1.456l5.419 1.456a.386.386 0 00.438-.187l4.164-7.618a4.037 4.037 0 014.975-1.828l5.131 1.978 4.095 10.965-27.314 10.268zm-.976-6.357l1.743 4.666 24.863-9.345-3.43-9.183-4.582-1.766a2.721 2.721 0 00-3.357 1.233l-4.165 7.618a1.687 1.687 0 01-1.923.825l-5.42-1.456a1.027 1.027 0 00-1.238.642l-2.491 6.766zM396.429 137.083a3.769 3.769 0 01-3.526-2.448 3.782 3.782 0 012.202-4.857 3.762 3.762 0 014.842 2.209 3.782 3.782 0 01-2.202 4.857 3.754 3.754 0 01-1.316.239zm-.007-6.232c-.285 0-.575.05-.857.156a2.466 2.466 0 00-1.436 3.167 2.452 2.452 0 003.156 1.44 2.465 2.465 0 001.436-3.166 2.457 2.457 0 00-2.299-1.597z" opacity=".47"/>
      </g>
    </g>
  </g>
  <defs>
    <linearGradient id="paint0_linear_101_338" x1="27.223" x2="235.62" y1="113.38" y2="113.38" gradientUnits="userSpaceOnUse">
      <stop stop-color="#CCD4FF"/>
      <stop offset="1" stop-color="#E2E7FF"/>
    </linearGradient>
    <linearGradient id="paint1_linear_101_338" x1="150.365" x2="190.581" y1="40.331" y2="40.331" gradientUnits="userSpaceOnUse">
      <stop stop-color="#5E5BFF"/>
      <stop offset="1" stop-color="#9CA6FF"/>
    </linearGradient>
    <linearGradient id="paint2_linear_101_338" x1="150.365" x2="190.581" y1="38.52" y2="38.52" gradientUnits="userSpaceOnUse">
      <stop stop-color="#8B98FF"/>
      <stop offset=".226" stop-color="#9AA5FF"/>
      <stop offset="1" stop-color="#C9CDFF"/>
    </linearGradient>
    <linearGradient id="paint3_linear_101_338" x1="239.978" x2="169.058" y1="68.354" y2="142.205" gradientUnits="userSpaceOnUse">
      <stop stop-color="#FFA903"/>
      <stop offset="1" stop-color="#FF5E00"/>
    </linearGradient>
    <linearGradient id="paint4_linear_101_338" x1="242.339" x2="171.419" y1="70.621" y2="144.473" gradientUnits="userSpaceOnUse">
      <stop stop-color="#FFA903"/>
      <stop offset="1" stop-color="#FF5E00"/>
    </linearGradient>
    <linearGradient id="paint5_linear_101_338" x1="236.161" x2="165.241" y1="64.688" y2="138.54" gradientUnits="userSpaceOnUse">
      <stop stop-color="#FFA903"/>
      <stop offset="1" stop-color="#FF5E00"/>
    </linearGradient>
    <linearGradient id="paint6_linear_101_338" x1="240.81" x2="169.891" y1="69.153" y2="143.005" gradientUnits="userSpaceOnUse">
      <stop stop-color="#FFA903"/>
      <stop offset="1" stop-color="#FF5E00"/>
    </linearGradient>
    <linearGradient id="paint7_linear_101_338" x1="234.229" x2="163.31" y1="62.833" y2="136.685" gradientUnits="userSpaceOnUse">
      <stop stop-color="#FFA903"/>
      <stop offset="1" stop-color="#FF5E00"/>
    </linearGradient>
    <linearGradient id="paint8_linear_101_338" x1="234.886" x2="163.966" y1="63.464" y2="137.315" gradientUnits="userSpaceOnUse">
      <stop stop-color="#FFA903"/>
      <stop offset="1" stop-color="#FF5E00"/>
    </linearGradient>
    <linearGradient id="paint9_linear_101_338" x1="235.42" x2="164.5" y1="63.961" y2="137.812" gradientUnits="userSpaceOnUse">
      <stop stop-color="#FFA903"/>
      <stop offset="1" stop-color="#FF5E00"/>
    </linearGradient>
    <linearGradient id="paint10_linear_101_338" x1="241.458" x2="170.539" y1="69.776" y2="143.627" gradientUnits="userSpaceOnUse">
      <stop stop-color="#FFA903"/>
      <stop offset="1" stop-color="#FF5E00"/>
    </linearGradient>
    <linearGradient id="paint11_linear_101_338" x1="234.622" x2="163.702" y1="63.211" y2="137.062" gradientUnits="userSpaceOnUse">
      <stop stop-color="#FFA903"/>
      <stop offset="1" stop-color="#FF5E00"/>
    </linearGradient>
    <linearGradient id="paint12_linear_101_338" x1="240.707" x2="169.787" y1="69.054" y2="142.905" gradientUnits="userSpaceOnUse">
      <stop stop-color="#FFA903"/>
      <stop offset="1" stop-color="#FF5E00"/>
    </linearGradient>
    <linearGradient id="paint13_linear_101_338" x1="241.455" x2="170.535" y1="69.772" y2="143.623" gradientUnits="userSpaceOnUse">
      <stop stop-color="#FFA903"/>
      <stop offset="1" stop-color="#FF5E00"/>
    </linearGradient>
    <linearGradient id="paint14_linear_101_338" x1="242.794" x2="171.874" y1="71.058" y2="144.909" gradientUnits="userSpaceOnUse">
      <stop stop-color="#FFA903"/>
      <stop offset="1" stop-color="#FF5E00"/>
    </linearGradient>
    <linearGradient id="paint15_linear_101_338" x1="7.886" x2="142.824" y1="122.471" y2="149.5" gradientUnits="userSpaceOnUse">
      <stop stop-color="#B8B8FF"/>
      <stop offset="1" stop-color="#613BEB"/>
    </linearGradient>
    <linearGradient id="paint16_linear_101_338" x1="6.811" x2="141.833" y1="127.798" y2="154.844" gradientUnits="userSpaceOnUse">
      <stop stop-color="#B8B8FF"/>
      <stop offset="1" stop-color="#613BEB"/>
    </linearGradient>
    <linearGradient id="paint17_linear_101_338" x1="8.748" x2="143.637" y1="118.321" y2="145.341" gradientUnits="userSpaceOnUse">
      <stop stop-color="#B8B8FF"/>
      <stop offset="1" stop-color="#613BEB"/>
    </linearGradient>
    <linearGradient id="paint18_linear_101_338" x1="7.637" x2="142.77" y1="123.418" y2="150.486" gradientUnits="userSpaceOnUse">
      <stop stop-color="#B8B8FF"/>
      <stop offset="1" stop-color="#613BEB"/>
    </linearGradient>
    <linearGradient id="paint19_linear_101_338" x1="9.739" x2="144.547" y1="113.65" y2="140.652" gradientUnits="userSpaceOnUse">
      <stop stop-color="#B8B8FF"/>
      <stop offset="1" stop-color="#613BEB"/>
    </linearGradient>
    <linearGradient id="paint20_linear_101_338" x1="9.762" x2="144.557" y1="113.64" y2="140.639" gradientUnits="userSpaceOnUse">
      <stop stop-color="#B8B8FF"/>
      <stop offset="1" stop-color="#613BEB"/>
    </linearGradient>
    <linearGradient id="paint21_linear_101_338" x1="9.836" x2="144.595" y1="113.457" y2="140.449" gradientUnits="userSpaceOnUse">
      <stop stop-color="#B8B8FF"/>
      <stop offset="1" stop-color="#613BEB"/>
    </linearGradient>
    <linearGradient id="paint22_linear_101_338" x1="7.318" x2="142.434" y1="125.105" y2="152.169" gradientUnits="userSpaceOnUse">
      <stop stop-color="#B8B8FF"/>
      <stop offset="1" stop-color="#613BEB"/>
    </linearGradient>
    <linearGradient id="paint23_linear_101_338" x1="9.42" x2="144.244" y1="115.129" y2="142.136" gradientUnits="userSpaceOnUse">
      <stop stop-color="#B8B8FF"/>
      <stop offset="1" stop-color="#613BEB"/>
    </linearGradient>
    <linearGradient id="paint24_linear_101_338" x1="7.825" x2="142.916" y1="122.506" y2="149.566" gradientUnits="userSpaceOnUse">
      <stop stop-color="#B8B8FF"/>
      <stop offset="1" stop-color="#613BEB"/>
    </linearGradient>
    <linearGradient id="paint25_linear_101_338" x1="7.775" x2="142.868" y1="122.671" y2="149.731" gradientUnits="userSpaceOnUse">
      <stop stop-color="#B8B8FF"/>
      <stop offset="1" stop-color="#613BEB"/>
    </linearGradient>
    <linearGradient id="paint26_linear_101_338" x1="7.587" x2="142.641" y1="123.645" y2="150.697" gradientUnits="userSpaceOnUse">
      <stop stop-color="#B8B8FF"/>
      <stop offset="1" stop-color="#613BEB"/>
    </linearGradient>
    <linearGradient id="paint27_linear_101_338" x1="152.7" x2="234.559" y1="132.57" y2="132.57" gradientUnits="userSpaceOnUse">
      <stop stop-color="#613BEB"/>
      <stop offset="1" stop-color="#9090F8"/>
    </linearGradient>
    <linearGradient id="paint28_linear_101_338" x1=".003" x2="102.953" y1="110.961" y2="110.961" gradientUnits="userSpaceOnUse">
      <stop stop-color="#FEE6D6"/>
      <stop offset="1" stop-color="#FFA903"/>
    </linearGradient>
    <linearGradient id="paint29_linear_101_338" x1="33.735" x2="84.842" y1="45.162" y2="105.611" gradientUnits="userSpaceOnUse">
      <stop stop-color="#FFF3DB"/>
      <stop offset="1" stop-color="#fff"/>
    </linearGradient>
    <linearGradient id="paint30_linear_101_338" x1="41.855" x2="79.544" y1="62.156" y2="62.156" gradientUnits="userSpaceOnUse">
      <stop stop-color="#FFA903"/>
      <stop offset="1" stop-color="#FFCC69"/>
    </linearGradient>
    <linearGradient id="paint31_linear_101_338" x1="174.401" x2="219.844" y1="64.439" y2="64.439" gradientUnits="userSpaceOnUse">
      <stop stop-color="#FFA903"/>
      <stop offset="1" stop-color="#FFE8BA"/>
    </linearGradient>
    <linearGradient id="paint32_linear_101_338" x1="77.506" x2="192.168" y1="112.362" y2="112.362" gradientUnits="userSpaceOnUse">
      <stop stop-color="#613BEB"/>
      <stop offset="1" stop-color="#9090F8"/>
    </linearGradient>
    <linearGradient id="paint33_linear_101_338" x1="91.233" x2="171.301" y1="135.847" y2="48.982" gradientUnits="userSpaceOnUse">
      <stop stop-color="#613BEB"/>
      <stop offset="1" stop-color="#B8B8FF"/>
    </linearGradient>
    <linearGradient id="paint34_linear_101_338" x1="95.232" x2="167.954" y1="132.722" y2="53.827" gradientUnits="userSpaceOnUse">
      <stop stop-color="#8B98FF"/>
      <stop offset=".226" stop-color="#9AA5FF"/>
      <stop offset="1" stop-color="#C9CDFF"/>
    </linearGradient>
    <linearGradient id="paint35_linear_101_338" x1="114.225" x2="156.017" y1="101.681" y2="101.681" gradientUnits="userSpaceOnUse">
      <stop stop-color="#613BEB"/>
      <stop offset="1" stop-color="#9090F8"/>
    </linearGradient>
    <linearGradient id="paint36_linear_101_338" x1="178.266" x2="204.896" y1="167.544" y2="138.654" gradientUnits="userSpaceOnUse">
      <stop stop-color="#fff"/>
      <stop offset="1" stop-color="#FEFEFF"/>
    </linearGradient>
    <linearGradient id="paint37_linear_101_338" x1="166.442" x2="197.599" y1="177.026" y2="143.224" gradientUnits="userSpaceOnUse">
      <stop stop-color="#FF5E00"/>
      <stop offset="1" stop-color="#FFA903"/>
    </linearGradient>
    <linearGradient id="paint38_linear_101_338" x1="55.746" x2="108.071" y1="125.86" y2="125.86" gradientUnits="userSpaceOnUse">
      <stop stop-color="#EEF5FF"/>
      <stop offset="1" stop-color="#FEFEFF"/>
    </linearGradient>
    <linearGradient id="paint39_linear_101_338" x1="54.167" x2="54.167" y1="143.225" y2="129.738" gradientUnits="userSpaceOnUse">
      <stop stop-color="#F52300"/>
      <stop offset="1" stop-color="#FF5E00"/>
    </linearGradient>
    <linearGradient id="paint40_linear_101_338" x1="62.077" x2="64.63" y1="131.09" y2="128.528" gradientUnits="userSpaceOnUse">
      <stop stop-color="#FFC7B6"/>
      <stop offset="1" stop-color="#FFD5CD"/>
    </linearGradient>
    <linearGradient id="paint41_linear_101_338" x1="49.568" x2="49.568" y1="129.335" y2="125.242" gradientUnits="userSpaceOnUse">
      <stop stop-color="#FFE2E1"/>
      <stop offset="1" stop-color="#FFC7B6"/>
    </linearGradient>
    <linearGradient id="paint42_linear_101_338" x1="47.782" x2="54.785" y1="122.058" y2="122.67" gradientUnits="userSpaceOnUse">
      <stop stop-color="#FFC7B6"/>
      <stop offset="1" stop-color="#FFE2E1"/>
    </linearGradient>
    <linearGradient id="paint43_linear_101_338" x1="42.607" x2="53.326" y1="160.727" y2="160.727" gradientUnits="userSpaceOnUse">
      <stop stop-color="#F52300"/>
      <stop offset="1" stop-color="#FF5E00"/>
    </linearGradient>
    <linearGradient id="paint44_linear_101_338" x1="51.723" x2="51.723" y1="147.449" y2="130.793" gradientUnits="userSpaceOnUse">
      <stop stop-color="#F52300"/>
      <stop offset="1" stop-color="#FF5E00"/>
    </linearGradient>
    <linearGradient id="paint45_linear_101_338" x1="60.954" x2="62.785" y1="146.659" y2="149.409" gradientUnits="userSpaceOnUse">
      <stop stop-color="#FFC7B6"/>
      <stop offset="1" stop-color="#FFD5CD"/>
    </linearGradient>
    <linearGradient id="paint46_linear_101_338" x1="38.272" x2="54.521" y1="127.018" y2="127.018" gradientUnits="userSpaceOnUse">
      <stop stop-color="#FFC24D"/>
      <stop offset=".746" stop-color="#FF811B"/>
      <stop offset="1" stop-color="#FF5E00"/>
    </linearGradient>
    <filter id="filter0_i_101_338" width="39.781" height="53.243" x="255.109" y="50.379" color-interpolation-filters="sRGB" filterUnits="userSpaceOnUse">
      <feFlood flood-opacity="0" result="BackgroundImageFix"/>
      <feBlend in="SourceGraphic" in2="BackgroundImageFix" result="shape"/>
      <feColorMatrix in="SourceAlpha" result="hardAlpha" values="0 0 0 0 0 0 0 0 0 0 0 0 0 0 0 0 0 0 127 0"/>
      <feOffset dy="4"/>
      <feGaussianBlur stdDeviation="2"/>
      <feComposite in2="hardAlpha" k2="-1" k3="1" operator="arithmetic"/>
      <feColorMatrix values="0 0 0 0 0 0 0 0 0 0 0 0 0 0 0 0 0 0 0.25 0"/>
      <feBlend in2="shape" result="effect1_innerShadow_101_338"/>
    </filter>
    <filter id="filter1_i_101_338" width="49.405" height="53.405" x="250.298" y="100.298" color-interpolation-filters="sRGB" filterUnits="userSpaceOnUse">
      <feFlood flood-opacity="0" result="BackgroundImageFix"/>
      <feBlend in="SourceGraphic" in2="BackgroundImageFix" result="shape"/>
      <feColorMatrix in="SourceAlpha" result="hardAlpha" values="0 0 0 0 0 0 0 0 0 0 0 0 0 0 0 0 0 0 127 0"/>
      <feOffset dy="4"/>
      <feGaussianBlur stdDeviation="2"/>
      <feComposite in2="hardAlpha" k2="-1" k3="1" operator="arithmetic"/>
      <feColorMatrix values="0 0 0 0 0 0 0 0 0 0 0 0 0 0 0 0 0 0 0.25 0"/>
      <feBlend in2="shape" result="effect1_innerShadow_101_338"/>
    </filter>
    <filter id="filter2_i_101_338" width="41.077" height="53.536" x="254" y="150.232" color-interpolation-filters="sRGB" filterUnits="userSpaceOnUse">
      <feFlood flood-opacity="0" result="BackgroundImageFix"/>
      <feBlend in="SourceGraphic" in2="BackgroundImageFix" result="shape"/>
      <feColorMatrix in="SourceAlpha" result="hardAlpha" values="0 0 0 0 0 0 0 0 0 0 0 0 0 0 0 0 0 0 127 0"/>
      <feOffset dy="4"/>
      <feGaussianBlur stdDeviation="2"/>
      <feComposite in2="hardAlpha" k2="-1" k3="1" operator="arithmetic"/>
      <feColorMatrix values="0 0 0 0 0 0 0 0 0 0 0 0 0 0 0 0 0 0 0.25 0"/>
      <feBlend in2="shape" result="effect1_innerShadow_101_338"/>
    </filter>
    <filter id="filter3_i_101_338" width="43.751" height="54" x="253.125" y="0" color-interpolation-filters="sRGB" filterUnits="userSpaceOnUse">
      <feFlood flood-opacity="0" result="BackgroundImageFix"/>
      <feBlend in="SourceGraphic" in2="BackgroundImageFix" result="shape"/>
      <feColorMatrix in="SourceAlpha" result="hardAlpha" values="0 0 0 0 0 0 0 0 0 0 0 0 0 0 0 0 0 0 127 0"/>
      <feOffset dy="4"/>
      <feGaussianBlur stdDeviation="2"/>
      <feComposite in2="hardAlpha" k2="-1" k3="1" operator="arithmetic"/>
      <feColorMatrix values="0 0 0 0 0 0 0 0 0 0 0 0 0 0 0 0 0 0 0.25 0"/>
      <feBlend in2="shape" result="effect1_innerShadow_101_338"/>
    </filter>
  </defs>
</svg>
