<svg xmlns="http://www.w3.org/2000/svg" width="75" height="75" fill="none" viewBox="0 0 75 75">
  <g filter="url(#filter0_i)">
    <path fill="#9897E0" d="M60.938 65.625H14.062V56.25l14.063-23.438 19.26 23.438 13.553-9.375v18.75zM60.938 35.156a7.034 7.034 0 11-14.068-.005 7.034 7.034 0 0114.068.005z"/>
    <path fill="#9897E0" d="M67.223 16.777c-1.626-2.218-3.895-4.815-6.384-7.304-2.489-2.489-5.086-4.757-7.303-6.384C49.758.32 47.925 0 46.875 0H10.547c-3.23 0-5.86 2.63-5.86 5.86v63.28c0 3.23 2.63 5.86 5.86 5.86h53.906c3.23 0 5.86-2.63 5.86-5.86V23.438c0-1.05-.32-2.882-3.09-6.66zm-9.703-3.985c2.25 2.25 4.013 4.275 5.316 5.958H51.558V7.477c1.683 1.303 3.712 3.065 5.958 5.315h.004zm8.105 56.349c0 .637-.534 1.171-1.172 1.171H10.547a1.186 1.186 0 01-1.172-1.171V5.859c0-.632.54-1.171 1.172-1.171h36.328v16.406a2.343 2.343 0 002.344 2.343h16.406v45.704z"/>
  </g>
  <defs>
    <filter id="filter0_i" width="75" height="79" x="0" y="0" color-interpolation-filters="sRGB" filterUnits="userSpaceOnUse">
      <feFlood flood-opacity="0" result="BackgroundImageFix"/>
      <feBlend in="SourceGraphic" in2="BackgroundImageFix" result="shape"/>
      <feColorMatrix in="SourceAlpha" result="hardAlpha" values="0 0 0 0 0 0 0 0 0 0 0 0 0 0 0 0 0 0 127 0"/>
      <feOffset dy="4"/>
      <feGaussianBlur stdDeviation="2"/>
      <feComposite in2="hardAlpha" k2="-1" k3="1" operator="arithmetic"/>
      <feColorMatrix values="0 0 0 0 0 0 0 0 0 0 0 0 0 0 0 0 0 0 0.25 0"/>
      <feBlend in2="shape" result="effect1_innerShadow"/>
    </filter>
  </defs>
</svg>
